<svg width="48" height="48" viewBox="0 0 48 48" fill="none" xmlns="http://www.w3.org/2000/svg">
<path d="M48 24C48 10.776 37.224 0 24 0C10.776 0 0 10.776 0 24C0 30.96 3 37.224 7.752 41.616C7.752 41.64 7.752 41.64 7.728 41.664C7.968 41.904 8.256 42.096 8.496 42.312C8.64 42.432 8.76 42.552 8.904 42.648C9.336 43.008 9.816 43.344 10.272 43.68L10.752 44.016C11.208 44.328 11.688 44.616 12.192 44.88C12.36 44.976 12.552 45.096 12.72 45.192C13.2 45.456 13.704 45.696 14.232 45.912C14.424 46.008 14.616 46.104 14.808 46.176C15.336 46.392 15.864 46.584 16.392 46.752C16.584 46.824 16.776 46.896 16.968 46.944C17.544 47.112 18.12 47.256 18.696 47.4C18.864 47.448 19.032 47.496 19.224 47.52C19.896 47.664 20.568 47.76 21.264 47.832C21.36 47.832 21.456 47.856 21.552 47.88C22.368 47.952 23.184 48 24 48C24.816 48 25.632 47.952 26.424 47.88C26.52 47.88 26.616 47.856 26.712 47.832C27.408 47.76 28.08 47.664 28.752 47.52C28.92 47.496 29.088 47.424 29.28 47.4C29.856 47.256 30.456 47.136 31.008 46.944C31.2 46.872 31.392 46.8 31.584 46.752C32.112 46.56 32.664 46.392 33.168 46.176C33.36 46.104 33.552 46.008 33.744 45.912C34.248 45.696 34.752 45.456 35.256 45.192C35.448 45.096 35.616 44.976 35.784 44.88C36.264 44.592 36.744 44.328 37.224 44.016C37.392 43.92 37.536 43.8 37.704 43.68C38.184 43.344 38.64 43.008 39.072 42.648C39.216 42.528 39.336 42.408 39.48 42.312C39.744 42.096 40.008 41.88 40.248 41.664C40.248 41.64 40.248 41.64 40.224 41.616C45 37.224 48 30.96 48 24ZM35.856 35.928C29.352 31.56 18.696 31.56 12.144 35.928C11.088 36.624 10.224 37.44 9.504 38.328C5.72355 34.5174 3.60154 29.3677 3.6 24C3.6 12.744 12.744 3.6 24 3.6C35.256 3.6 44.4 12.744 44.4 24C44.4 29.568 42.144 34.632 38.496 38.328C37.8 37.44 36.912 36.624 35.856 35.928Z" fill="#145D85"/>
<path d="M24 12C19.032 12 15 16.0374 15 21.012C15 25.8905 18.816 29.8558 23.88 30H24.312C26.6417 29.9233 28.8504 28.9428 30.4716 27.2657C32.0927 25.5886 32.9994 23.3461 33 21.012C33 16.0374 28.968 12 24 12Z" fill="#145D85"/>
</svg>
