<svg width="162" height="162" viewBox="0 0 162 162" fill="none" xmlns="http://www.w3.org/2000/svg">
<g filter="url(#filter0_i_34_17)">
<circle cx="81" cy="81" r="81" fill="#BBEFFF"/>
</g>
<circle cx="81" cy="81" r="80" stroke="#BBEFFF" stroke-width="2"/>
<path d="M13.6586 66.952C12.9866 66.952 12.5066 66.792 12.2186 66.472C11.9306 66.136 11.7866 65.672 11.7866 65.08C11.7866 64.824 11.8186 64.544 11.8826 64.24C11.9466 63.936 12.0586 63.656 12.2186 63.4C12.3946 63.128 12.6346 62.904 12.9386 62.728C13.2586 62.536 13.6666 62.44 14.1626 62.44C14.8826 62.44 15.3706 62.632 15.6266 63.016C15.8826 63.384 16.0106 63.848 16.0106 64.408C16.0106 64.728 15.9706 65.04 15.8906 65.344C15.8106 65.648 15.6826 65.92 15.5066 66.16C15.3306 66.4 15.0906 66.592 14.7866 66.736C14.4826 66.88 14.1066 66.952 13.6586 66.952ZM13.1306 68.632C13.9146 68.632 14.4346 68.832 14.6906 69.232C14.9626 69.616 15.0986 70.2 15.0986 70.984C15.0986 71.128 15.0906 71.288 15.0746 71.464C15.0746 71.624 15.0666 71.832 15.0506 72.088C15.0346 72.344 15.0106 72.664 14.9786 73.048C14.9466 73.432 14.9066 73.928 14.8586 74.536C14.8106 75.128 14.7546 75.848 14.6906 76.696C14.6266 77.56 14.5546 78.576 14.4746 79.744C14.4586 79.92 14.4426 80.056 14.4266 80.152C14.4266 80.264 14.4106 80.336 14.3786 80.368C14.3306 80.416 14.1946 80.44 13.9706 80.44H12.5546C11.6746 80.44 11.0426 80.264 10.6586 79.912C10.2906 79.576 10.1066 79.176 10.1066 78.712C10.1066 78.424 10.1306 78.04 10.1786 77.56C10.2426 77.096 10.3226 76.576 10.4186 76C10.5146 75.424 10.6186 74.824 10.7306 74.2C10.8586 73.56 10.9786 72.936 11.0906 72.328C11.2186 71.704 11.3386 71.12 11.4506 70.576C11.5626 70.016 11.6586 69.528 11.7386 69.112C11.7706 68.92 11.8186 68.792 11.8826 68.728C11.9626 68.664 12.0906 68.632 12.2666 68.632H13.1306ZM29.8378 78.832C29.8378 78.96 29.7658 79.12 29.6218 79.312C29.4778 79.52 29.2698 79.72 28.9978 79.912C28.7418 80.12 28.4298 80.296 28.0618 80.44C27.7098 80.584 27.3178 80.656 26.8858 80.656C26.3578 80.656 25.9018 80.536 25.5178 80.296C25.1338 80.072 24.7898 79.76 24.4858 79.36C24.1978 78.96 23.9418 78.48 23.7178 77.92C23.4938 77.376 23.2778 76.792 23.0698 76.168C22.0458 76.056 21.1898 75.784 20.5018 75.352C19.8138 74.92 19.2618 74.368 18.8458 73.696C18.4458 73.024 18.1578 72.264 17.9818 71.416C17.8058 70.552 17.7178 69.632 17.7178 68.656C17.7178 67.408 17.8538 66.192 18.1258 65.008C18.4138 63.808 18.8778 62.744 19.5178 61.816C20.1738 60.872 21.0298 60.12 22.0858 59.56C23.1418 58.984 24.4458 58.696 25.9978 58.696C27.1338 58.696 28.1018 58.864 28.9018 59.2C29.7018 59.52 30.3498 59.992 30.8458 60.616C31.3578 61.224 31.7258 61.984 31.9498 62.896C32.1898 63.792 32.3098 64.816 32.3098 65.968C32.3098 66.8 32.2378 67.72 32.0938 68.728C31.9498 69.72 31.6778 70.688 31.2778 71.632C30.8778 72.56 30.3258 73.408 29.6218 74.176C28.9338 74.928 28.0298 75.488 26.9098 75.856C27.1498 76.096 27.4378 76.368 27.7738 76.672C28.1098 76.976 28.4298 77.264 28.7338 77.536C29.0378 77.824 29.2938 78.08 29.5018 78.304C29.7258 78.544 29.8378 78.72 29.8378 78.832ZM25.4938 62.416C24.7738 62.416 24.1978 62.632 23.7658 63.064C23.3338 63.496 22.9978 64.024 22.7578 64.648C22.5338 65.272 22.3818 65.928 22.3018 66.616C22.2218 67.288 22.1818 67.872 22.1818 68.368C22.1818 69.76 22.3898 70.8 22.8058 71.488C23.2378 72.16 23.8378 72.496 24.6058 72.496C25.2778 72.496 25.8218 72.264 26.2378 71.8C26.6698 71.32 27.0058 70.752 27.2458 70.096C27.4858 69.424 27.6458 68.728 27.7258 68.008C27.8058 67.272 27.8458 66.64 27.8458 66.112C27.8458 64.96 27.6698 64.056 27.3178 63.4C26.9658 62.744 26.3578 62.416 25.4938 62.416ZM47.5892 68.176C47.5412 68.656 47.4692 69.192 47.3732 69.784C47.2772 70.36 47.1252 70.952 46.9172 71.56C46.7252 72.152 46.4612 72.728 46.1252 73.288C45.7892 73.848 45.3572 74.352 44.8292 74.8C44.3012 75.232 43.6612 75.584 42.9092 75.856C42.1732 76.112 41.2932 76.24 40.2692 76.24C39.2292 76.24 38.3412 76.096 37.6052 75.808C36.8692 75.504 36.2692 75.096 35.8052 74.584C35.3412 74.056 35.0052 73.448 34.7972 72.76C34.5892 72.072 34.4852 71.336 34.4852 70.552C34.4852 70.2 34.5012 69.728 34.5332 69.136C34.5652 68.528 34.6052 67.872 34.6532 67.168C34.7172 66.464 34.7812 65.736 34.8452 64.984C34.9092 64.216 34.9652 63.488 35.0132 62.8C35.0772 62.112 35.1332 61.496 35.1812 60.952C35.2292 60.392 35.2612 59.968 35.2772 59.68C35.2932 59.376 35.3332 59.184 35.3972 59.104C35.4612 59.008 35.5572 58.96 35.6852 58.96H37.0052C37.9812 58.96 38.6372 59.168 38.9732 59.584C39.3092 60 39.4772 60.616 39.4772 61.432C39.4772 61.48 39.4612 61.696 39.4292 62.08C39.4132 62.448 39.3812 62.904 39.3332 63.448C39.3012 63.992 39.2612 64.584 39.2132 65.224C39.1812 65.864 39.1412 66.472 39.0932 67.048C39.0612 67.624 39.0292 68.128 38.9972 68.56C38.9812 68.992 38.9732 69.28 38.9732 69.424C38.9732 69.696 38.9812 70.008 38.9972 70.36C39.0292 70.712 39.0932 71.048 39.1892 71.368C39.3012 71.688 39.4692 71.96 39.6932 72.184C39.9332 72.392 40.2692 72.496 40.7012 72.496C41.2452 72.496 41.6852 72.312 42.0212 71.944C42.3732 71.576 42.6372 71.136 42.8132 70.624C43.0052 70.112 43.1332 69.592 43.1972 69.064C43.2772 68.536 43.3332 68.104 43.3652 67.768C43.4292 66.952 43.4932 66.112 43.5572 65.248C43.6372 64.384 43.7012 63.576 43.7492 62.824C43.8132 62.072 43.8612 61.416 43.8932 60.856C43.9252 60.296 43.9412 59.912 43.9412 59.704C43.9412 59.384 43.9652 59.184 44.0132 59.104C44.0612 59.008 44.1652 58.96 44.3252 58.96H45.6452C46.1892 58.96 46.6132 59.008 46.9172 59.104C47.2372 59.2 47.4772 59.328 47.6372 59.488C47.7972 59.648 47.8932 59.832 47.9252 60.04C47.9732 60.248 47.9972 60.464 47.9972 60.688C47.9972 60.896 47.9812 61.288 47.9492 61.864C47.9332 62.44 47.9092 63.096 47.8772 63.832C47.8452 64.568 47.8052 65.328 47.7572 66.112C47.7092 66.896 47.6532 67.584 47.5892 68.176ZM52.6575 76C51.7615 76 51.1215 75.824 50.7375 75.472C50.3535 75.12 50.1615 74.616 50.1615 73.96C50.1615 73.64 50.1855 73.096 50.2335 72.328C50.2815 71.544 50.3455 70.656 50.4255 69.664C50.5055 68.672 50.5855 67.624 50.6655 66.52C50.7455 65.416 50.8255 64.376 50.9055 63.4C50.9855 62.424 51.0495 61.568 51.0975 60.832C51.1455 60.096 51.1695 59.592 51.1695 59.32C51.1695 59.08 51.2975 58.96 51.5535 58.96H52.8735C53.8495 58.96 54.5055 59.168 54.8415 59.584C55.1775 60 55.3455 60.616 55.3455 61.432C55.3455 61.512 55.3295 61.768 55.2975 62.2C55.2815 62.632 55.2495 63.176 55.2015 63.832C55.1535 64.488 55.0975 65.224 55.0335 66.04C54.9855 66.84 54.9295 67.664 54.8655 68.512C54.8175 69.36 54.7615 70.192 54.6975 71.008C54.6495 71.808 54.6015 72.536 54.5535 73.192C54.5055 73.848 54.4655 74.4 54.4335 74.848C54.4015 75.28 54.3775 75.544 54.3615 75.64C54.3455 75.768 54.3135 75.864 54.2655 75.928C54.2175 75.976 54.1215 76 53.9775 76H52.6575ZM60.2044 76C59.3084 76 58.6684 75.824 58.2844 75.472C57.9004 75.12 57.7084 74.616 57.7084 73.96C57.7084 73.64 57.7324 73.096 57.7804 72.328C57.8284 71.544 57.8924 70.656 57.9724 69.664C58.0524 68.672 58.1324 67.624 58.2124 66.52C58.2924 65.416 58.3724 64.376 58.4524 63.4C58.5324 62.424 58.5964 61.568 58.6444 60.832C58.6924 60.096 58.7164 59.592 58.7164 59.32C58.7164 59.08 58.8444 58.96 59.1004 58.96H67.5484C67.6444 58.96 67.7324 58.984 67.8124 59.032C67.8924 59.08 67.9324 59.168 67.9324 59.296L67.8364 60.712C67.8044 61.192 67.6684 61.584 67.4284 61.888C67.2044 62.176 66.7324 62.32 66.0124 62.32H62.7004L62.4604 65.704H65.8684C65.9644 65.704 66.0524 65.728 66.1324 65.776C66.2124 65.824 66.2524 65.912 66.2524 66.04L66.1564 67.456C66.1244 67.936 65.9884 68.328 65.7484 68.632C65.5244 68.92 65.0524 69.064 64.3324 69.064H62.2444L61.9804 72.64H67.2604C67.3564 72.64 67.4444 72.672 67.5244 72.736C67.6044 72.784 67.6444 72.864 67.6444 72.976L67.5484 74.392C67.5164 74.872 67.3804 75.264 67.1404 75.568C66.9164 75.856 66.4444 76 65.7244 76H60.2044ZM72.2278 76C71.3158 76 70.6678 75.824 70.2838 75.472C69.9158 75.104 69.7318 74.568 69.7318 73.864C69.7318 73.672 69.7398 73.352 69.7558 72.904C69.7878 72.44 69.8278 71.896 69.8758 71.272C69.9238 70.648 69.9718 69.968 70.0198 69.232C70.0838 68.48 70.1478 67.72 70.2118 66.952C70.3398 65.336 70.4278 64.024 70.4758 63.016C70.5398 62.008 70.5878 61.216 70.6198 60.64C70.6678 59.92 70.7158 59.464 70.7638 59.272C70.8118 59.064 70.9158 58.96 71.0758 58.96C71.5718 58.96 72.0758 58.952 72.5878 58.936C73.1158 58.904 73.6198 58.872 74.0998 58.84C74.5798 58.808 75.0278 58.784 75.4438 58.768C75.8758 58.736 76.2598 58.72 76.5958 58.72C77.6198 58.72 78.4998 58.848 79.2358 59.104C79.9718 59.36 80.5638 59.72 81.0118 60.184C81.4758 60.648 81.8118 61.208 82.0198 61.864C82.2438 62.52 82.3558 63.256 82.3558 64.072C82.3558 65.32 82.1078 66.432 81.6118 67.408C81.1158 68.384 80.3238 69.128 79.2358 69.64L81.2518 72.52C81.6198 73.064 81.8998 73.488 82.0918 73.792C82.2838 74.08 82.3798 74.296 82.3798 74.44C82.3798 74.552 82.3078 74.712 82.1638 74.92C82.0358 75.112 81.8358 75.312 81.5638 75.52C81.3078 75.712 80.9878 75.88 80.6038 76.024C80.2358 76.168 79.8198 76.24 79.3558 76.24C78.8438 76.24 78.3958 76.072 78.0118 75.736C77.6438 75.4 77.3078 74.96 77.0038 74.416C76.7158 73.856 76.4598 73.216 76.2358 72.496C76.0278 71.776 75.8278 71.024 75.6358 70.24C75.0598 70.208 74.5878 70.152 74.2198 70.072C74.1718 70.776 74.1238 71.448 74.0758 72.088C74.0278 72.728 73.9878 73.304 73.9558 73.816C73.9238 74.312 73.8918 74.728 73.8598 75.064C73.8278 75.384 73.8118 75.576 73.8118 75.64C73.7958 75.768 73.7638 75.864 73.7158 75.928C73.6678 75.976 73.5718 76 73.4278 76H72.2278ZM76.1158 62.32C75.9238 62.32 75.7078 62.336 75.4678 62.368C75.2278 62.384 74.9718 62.408 74.6998 62.44C74.6678 63 74.6278 63.672 74.5798 64.456C74.5478 65.224 74.4998 66.048 74.4358 66.928C74.9958 67.056 75.4838 67.12 75.8998 67.12C76.3958 67.12 76.7958 67.024 77.0998 66.832C77.4198 66.64 77.6678 66.408 77.8438 66.136C78.0198 65.848 78.1318 65.544 78.1798 65.224C78.2438 64.904 78.2758 64.616 78.2758 64.36C78.2758 63.704 78.1158 63.2 77.7958 62.848C77.4758 62.496 76.9158 62.32 76.1158 62.32ZM93.0403 58.696C94.2083 58.696 95.2083 58.864 96.0403 59.2C96.8723 59.52 97.5523 60 98.0803 60.64C98.6083 61.264 98.9923 62.032 99.2323 62.944C99.4723 63.84 99.5923 64.864 99.5923 66.016C99.5923 66.656 99.5443 67.352 99.4483 68.104C99.3683 68.856 99.2083 69.616 98.9683 70.384C98.7443 71.136 98.4323 71.864 98.0323 72.568C97.6323 73.272 97.1123 73.896 96.4723 74.44C95.8483 74.984 95.0963 75.424 94.2163 75.76C93.3363 76.08 92.2963 76.24 91.0963 76.24C89.7683 76.24 88.6643 76.04 87.7843 75.64C86.9203 75.24 86.2243 74.704 85.6963 74.032C85.1843 73.344 84.8163 72.536 84.5923 71.608C84.3843 70.68 84.2803 69.688 84.2803 68.632C84.2803 67.384 84.4243 66.168 84.7123 64.984C85.0003 63.784 85.4803 62.72 86.1523 61.792C86.8403 60.864 87.7443 60.12 88.8643 59.56C89.9843 58.984 91.3763 58.696 93.0403 58.696ZM92.5363 62.416C91.9763 62.416 91.4883 62.52 91.0723 62.728C90.6723 62.92 90.3283 63.184 90.0403 63.52C89.7683 63.856 89.5443 64.232 89.3683 64.648C89.2083 65.064 89.0803 65.496 88.9843 65.944C88.8883 66.376 88.8243 66.8 88.7923 67.216C88.7603 67.616 88.7443 67.976 88.7443 68.296C88.7443 69.752 88.9843 70.816 89.4643 71.488C89.9603 72.16 90.6563 72.496 91.5523 72.496C92.2883 72.496 92.8883 72.264 93.3523 71.8C93.8163 71.32 94.1763 70.752 94.4323 70.096C94.7043 69.424 94.8883 68.736 94.9843 68.032C95.0803 67.312 95.1283 66.704 95.1283 66.208C95.1283 65.04 94.9283 64.12 94.5283 63.448C94.1283 62.76 93.4643 62.416 92.5363 62.416ZM120.011 68.176C119.963 68.656 119.891 69.192 119.795 69.784C119.699 70.36 119.547 70.952 119.339 71.56C119.147 72.152 118.883 72.728 118.547 73.288C118.211 73.848 117.779 74.352 117.251 74.8C116.723 75.232 116.083 75.584 115.331 75.856C114.595 76.112 113.715 76.24 112.691 76.24C111.651 76.24 110.763 76.096 110.027 75.808C109.291 75.504 108.691 75.096 108.227 74.584C107.763 74.056 107.427 73.448 107.219 72.76C107.011 72.072 106.907 71.336 106.907 70.552C106.907 70.2 106.923 69.728 106.955 69.136C106.987 68.528 107.027 67.872 107.075 67.168C107.139 66.464 107.203 65.736 107.267 64.984C107.331 64.216 107.387 63.488 107.435 62.8C107.499 62.112 107.555 61.496 107.603 60.952C107.651 60.392 107.683 59.968 107.699 59.68C107.715 59.376 107.755 59.184 107.819 59.104C107.883 59.008 107.979 58.96 108.107 58.96H109.427C110.403 58.96 111.059 59.168 111.395 59.584C111.731 60 111.899 60.616 111.899 61.432C111.899 61.48 111.883 61.696 111.851 62.08C111.835 62.448 111.803 62.904 111.755 63.448C111.723 63.992 111.683 64.584 111.635 65.224C111.603 65.864 111.563 66.472 111.515 67.048C111.483 67.624 111.451 68.128 111.419 68.56C111.403 68.992 111.395 69.28 111.395 69.424C111.395 69.696 111.403 70.008 111.419 70.36C111.451 70.712 111.515 71.048 111.611 71.368C111.723 71.688 111.891 71.96 112.115 72.184C112.355 72.392 112.691 72.496 113.123 72.496C113.667 72.496 114.107 72.312 114.443 71.944C114.795 71.576 115.059 71.136 115.235 70.624C115.427 70.112 115.555 69.592 115.619 69.064C115.699 68.536 115.755 68.104 115.787 67.768C115.851 66.952 115.915 66.112 115.979 65.248C116.059 64.384 116.123 63.576 116.171 62.824C116.235 62.072 116.283 61.416 116.315 60.856C116.347 60.296 116.363 59.912 116.363 59.704C116.363 59.384 116.387 59.184 116.435 59.104C116.483 59.008 116.587 58.96 116.747 58.96H118.067C118.611 58.96 119.035 59.008 119.339 59.104C119.659 59.2 119.899 59.328 120.059 59.488C120.219 59.648 120.315 59.832 120.347 60.04C120.395 60.248 120.419 60.464 120.419 60.688C120.419 60.896 120.403 61.288 120.371 61.864C120.355 62.44 120.331 63.096 120.299 63.832C120.267 64.568 120.227 65.328 120.179 66.112C120.131 66.896 120.075 67.584 120.011 68.176ZM133.335 76C132.679 76 132.191 75.904 131.871 75.712C131.551 75.52 131.319 75.28 131.175 74.992C130.343 73.28 129.559 71.64 128.823 70.072C128.103 68.504 127.367 66.92 126.615 65.32C126.631 67.048 126.655 68.768 126.687 70.48C126.719 72.192 126.751 73.912 126.783 75.64C126.783 75.88 126.655 76 126.399 76H125.079C124.167 76 123.519 75.824 123.135 75.472C122.767 75.104 122.583 74.568 122.583 73.864C122.583 73.672 122.591 73.352 122.607 72.904C122.639 72.44 122.679 71.896 122.727 71.272C122.775 70.648 122.823 69.968 122.871 69.232C122.935 68.48 122.999 67.72 123.063 66.952C123.159 65.736 123.239 64.728 123.303 63.928C123.367 63.128 123.415 62.456 123.447 61.912C123.495 61.352 123.527 60.88 123.543 60.496C123.559 60.096 123.575 59.704 123.591 59.32C123.591 59.08 123.719 58.96 123.975 58.96H125.895C126.423 58.96 126.855 59.024 127.191 59.152C127.527 59.264 127.799 59.424 128.007 59.632C128.231 59.84 128.407 60.08 128.535 60.352C128.663 60.608 128.783 60.88 128.895 61.168C129.279 62.16 129.615 63.016 129.903 63.736C130.207 64.456 130.471 65.088 130.695 65.632C130.919 66.176 131.111 66.648 131.271 67.048C131.447 67.448 131.607 67.816 131.751 68.152C131.895 68.488 132.039 68.816 132.183 69.136C132.327 69.44 132.479 69.776 132.639 70.144C132.639 69.2 132.631 68.232 132.615 67.24C132.615 66.232 132.607 65.256 132.591 64.312C132.591 63.352 132.583 62.432 132.567 61.552C132.567 60.672 132.567 59.88 132.567 59.176C132.567 59.032 132.703 58.96 132.975 58.96H134.295C134.823 58.96 135.239 59.016 135.543 59.128C135.863 59.224 136.111 59.376 136.287 59.584C136.463 59.776 136.575 60.016 136.623 60.304C136.687 60.592 136.719 60.92 136.719 61.288C136.719 61.688 136.695 62.304 136.647 63.136C136.599 63.952 136.543 64.872 136.479 65.896C136.415 66.92 136.343 67.984 136.263 69.088C136.183 70.176 136.103 71.184 136.023 72.112C135.959 73.04 135.895 73.832 135.831 74.488C135.783 75.128 135.751 75.504 135.735 75.616C135.735 75.744 135.687 75.84 135.591 75.904C135.511 75.968 135.415 76 135.303 76H133.335ZM146.667 58.96C147.067 58.96 147.395 59.04 147.651 59.2C147.923 59.344 148.147 59.544 148.323 59.8C148.499 60.04 148.643 60.32 148.755 60.64C148.867 60.96 148.963 61.288 149.043 61.624C149.683 64.216 150.211 66.352 150.627 68.032C151.043 69.712 151.371 71.072 151.611 72.112C151.851 73.136 152.019 73.896 152.115 74.392C152.211 74.888 152.259 75.232 152.259 75.424C152.259 75.648 152.203 75.8 152.091 75.88C151.995 75.96 151.835 76 151.611 76H150.387C149.699 76 149.147 75.92 148.731 75.76C148.331 75.584 148.019 75.336 147.795 75.016C147.587 74.696 147.435 74.312 147.339 73.864C147.243 73.4 147.163 72.88 147.099 72.304H142.923L142.131 75.616C142.051 75.872 141.867 76 141.579 76H140.307C140.051 76 139.787 75.976 139.515 75.928C139.243 75.864 138.995 75.768 138.771 75.64C138.563 75.512 138.387 75.352 138.243 75.16C138.099 74.952 138.027 74.704 138.027 74.416C138.027 74.064 138.139 73.488 138.363 72.688C138.587 71.888 138.867 70.984 139.203 69.976C139.555 68.952 139.939 67.888 140.355 66.784C140.787 65.664 141.203 64.608 141.603 63.616C142.003 62.624 142.363 61.752 142.683 61C143.019 60.248 143.275 59.72 143.451 59.416C143.579 59.192 143.691 59.064 143.787 59.032C143.899 58.984 144.099 58.96 144.387 58.96H146.667ZM143.787 68.824H146.547L145.539 62.488L143.787 68.824ZM57.2092 101.496C57.8652 101.496 58.4172 101.4 58.8652 101.208C59.3292 101.016 59.7212 100.8 60.0412 100.56C60.3612 100.32 60.6412 100.104 60.8812 99.912C61.1372 99.72 61.3932 99.624 61.6492 99.624C61.9692 99.624 62.1292 99.864 62.1292 100.344C62.1292 100.6 62.0972 100.912 62.0332 101.28C61.9692 101.632 61.8812 102.032 61.7692 102.48C61.7052 102.752 61.5452 103.048 61.2892 103.368C61.0492 103.688 60.7132 103.992 60.2812 104.28C59.8492 104.552 59.3132 104.784 58.6732 104.976C58.0492 105.152 57.3292 105.24 56.5132 105.24C55.6972 105.24 54.8812 105.12 54.0652 104.88C53.2492 104.64 52.5212 104.232 51.8812 103.656C51.2412 103.08 50.7212 102.304 50.3212 101.328C49.9212 100.352 49.7212 99.128 49.7212 97.656C49.7212 97.128 49.7532 96.52 49.8172 95.832C49.8972 95.128 50.0412 94.408 50.2492 93.672C50.4572 92.936 50.7452 92.216 51.1132 91.512C51.4972 90.792 51.9852 90.152 52.5772 89.592C53.1692 89.032 53.8892 88.584 54.7372 88.248C55.6012 87.896 56.6252 87.72 57.8092 87.72C58.7532 87.72 59.5692 87.832 60.2572 88.056C60.9612 88.28 61.5372 88.592 61.9852 88.992C62.4492 89.376 62.7852 89.832 62.9932 90.36C63.2172 90.888 63.3292 91.448 63.3292 92.04C63.3292 93.064 63.0252 93.816 62.4172 94.296C61.8252 94.76 60.9772 94.992 59.8732 94.992C59.5212 94.992 59.2972 94.968 59.2012 94.92C59.1212 94.856 59.0812 94.736 59.0812 94.56C59.0652 94.016 59.0492 93.544 59.0332 93.144C59.0172 92.744 58.9612 92.416 58.8652 92.16C58.7692 91.888 58.6172 91.696 58.4092 91.584C58.2172 91.456 57.9452 91.392 57.5932 91.392C57.0812 91.392 56.6412 91.504 56.2732 91.728C55.9212 91.936 55.6172 92.216 55.3612 92.568C55.1212 92.904 54.9212 93.288 54.7612 93.72C54.6172 94.152 54.4972 94.592 54.4012 95.04C54.3212 95.488 54.2652 95.92 54.2332 96.336C54.2172 96.752 54.2092 97.112 54.2092 97.416C54.2092 98.888 54.4492 99.936 54.9292 100.56C55.4252 101.184 56.1852 101.496 57.2092 101.496ZM72.2176 87.96C72.6176 87.96 72.9456 88.04 73.2016 88.2C73.4736 88.344 73.6976 88.544 73.8736 88.8C74.0496 89.04 74.1936 89.32 74.3056 89.64C74.4176 89.96 74.5136 90.288 74.5936 90.624C75.2336 93.216 75.7616 95.352 76.1776 97.032C76.5936 98.712 76.9216 100.072 77.1616 101.112C77.4016 102.136 77.5696 102.896 77.6656 103.392C77.7616 103.888 77.8096 104.232 77.8096 104.424C77.8096 104.648 77.7536 104.8 77.6416 104.88C77.5456 104.96 77.3856 105 77.1616 105H75.9376C75.2496 105 74.6976 104.92 74.2816 104.76C73.8816 104.584 73.5696 104.336 73.3456 104.016C73.1376 103.696 72.9856 103.312 72.8896 102.864C72.7936 102.4 72.7136 101.88 72.6496 101.304H68.4736L67.6816 104.616C67.6016 104.872 67.4176 105 67.1296 105H65.8576C65.6016 105 65.3376 104.976 65.0656 104.928C64.7936 104.864 64.5456 104.768 64.3216 104.64C64.1136 104.512 63.9376 104.352 63.7936 104.16C63.6496 103.952 63.5776 103.704 63.5776 103.416C63.5776 103.064 63.6896 102.488 63.9136 101.688C64.1376 100.888 64.4176 99.984 64.7536 98.976C65.1056 97.952 65.4896 96.888 65.9056 95.784C66.3376 94.664 66.7536 93.608 67.1536 92.616C67.5536 91.624 67.9136 90.752 68.2336 90C68.5696 89.248 68.8256 88.72 69.0016 88.416C69.1296 88.192 69.2416 88.064 69.3376 88.032C69.4496 87.984 69.6496 87.96 69.9376 87.96H72.2176ZM69.3376 97.824H72.0976L71.0896 91.488L69.3376 97.824ZM86.117 87.72C87.621 87.72 88.733 88.048 89.453 88.704C90.189 89.36 90.557 90.216 90.557 91.272C90.557 92.168 90.309 92.856 89.813 93.336C89.317 93.8 88.605 94.032 87.677 94.032C87.389 94.032 87.205 94.008 87.125 93.96C87.045 93.896 87.005 93.776 87.005 93.6C87.005 93.44 86.989 93.232 86.957 92.976C86.941 92.72 86.885 92.472 86.789 92.232C86.693 91.992 86.541 91.792 86.333 91.632C86.125 91.456 85.837 91.368 85.469 91.368C84.957 91.368 84.501 91.528 84.101 91.848C83.701 92.152 83.501 92.552 83.501 93.048C83.501 93.48 83.661 93.832 83.981 94.104C84.317 94.376 84.733 94.632 85.229 94.872C85.725 95.096 86.261 95.328 86.837 95.568C87.429 95.808 87.973 96.128 88.469 96.528C88.965 96.912 89.373 97.4 89.693 97.992C90.029 98.568 90.197 99.304 90.197 100.2C90.197 100.904 90.077 101.568 89.837 102.192C89.613 102.8 89.269 103.336 88.805 103.8C88.357 104.248 87.781 104.6 87.077 104.856C86.389 105.112 85.581 105.24 84.653 105.24C83.853 105.24 83.109 105.152 82.421 104.976C81.749 104.8 81.157 104.584 80.645 104.328C80.149 104.056 79.757 103.768 79.469 103.464C79.181 103.144 79.037 102.856 79.037 102.6C79.037 101.544 79.093 100.784 79.205 100.32C79.333 99.856 79.557 99.624 79.877 99.624C80.101 99.624 80.333 99.72 80.573 99.912C80.829 100.104 81.117 100.32 81.437 100.56C81.757 100.8 82.125 101.016 82.541 101.208C82.973 101.4 83.469 101.496 84.029 101.496C84.253 101.496 84.469 101.48 84.677 101.448C84.901 101.4 85.093 101.328 85.253 101.232C85.429 101.136 85.565 101.008 85.661 100.848C85.773 100.688 85.829 100.496 85.829 100.272C85.829 99.872 85.677 99.552 85.373 99.312C85.069 99.072 84.685 98.856 84.221 98.664C83.757 98.456 83.253 98.248 82.709 98.04C82.181 97.816 81.685 97.52 81.221 97.152C80.757 96.768 80.373 96.28 80.069 95.688C79.765 95.096 79.613 94.336 79.613 93.408C79.613 92.368 79.805 91.488 80.189 90.768C80.589 90.048 81.093 89.464 81.701 89.016C82.325 88.552 83.021 88.224 83.789 88.032C84.573 87.824 85.349 87.72 86.117 87.72ZM100.061 87.96C100.461 87.96 100.789 88.04 101.045 88.2C101.317 88.344 101.541 88.544 101.717 88.8C101.893 89.04 102.037 89.32 102.149 89.64C102.261 89.96 102.357 90.288 102.437 90.624C103.077 93.216 103.605 95.352 104.021 97.032C104.437 98.712 104.765 100.072 105.005 101.112C105.245 102.136 105.413 102.896 105.509 103.392C105.605 103.888 105.653 104.232 105.653 104.424C105.653 104.648 105.597 104.8 105.485 104.88C105.389 104.96 105.229 105 105.005 105H103.781C103.093 105 102.541 104.92 102.125 104.76C101.725 104.584 101.413 104.336 101.189 104.016C100.981 103.696 100.829 103.312 100.733 102.864C100.637 102.4 100.557 101.88 100.493 101.304H96.3173L95.5253 104.616C95.4453 104.872 95.2613 105 94.9733 105H93.7013C93.4453 105 93.1813 104.976 92.9093 104.928C92.6373 104.864 92.3893 104.768 92.1653 104.64C91.9573 104.512 91.7813 104.352 91.6373 104.16C91.4933 103.952 91.4213 103.704 91.4213 103.416C91.4213 103.064 91.5333 102.488 91.7573 101.688C91.9813 100.888 92.2613 99.984 92.5973 98.976C92.9493 97.952 93.3333 96.888 93.7493 95.784C94.1813 94.664 94.5973 93.608 94.9973 92.616C95.3973 91.624 95.7573 90.752 96.0773 90C96.4133 89.248 96.6693 88.72 96.8453 88.416C96.9733 88.192 97.0853 88.064 97.1813 88.032C97.2933 87.984 97.4933 87.96 97.7813 87.96H100.061ZM97.1813 97.824H99.9413L98.9333 91.488L97.1813 97.824ZM109.185 100.728C109.857 100.728 110.337 100.896 110.625 101.232C110.913 101.552 111.057 102.008 111.057 102.6C111.057 102.856 111.025 103.136 110.961 103.44C110.897 103.744 110.777 104.032 110.601 104.304C110.441 104.56 110.201 104.784 109.881 104.976C109.577 105.152 109.177 105.24 108.681 105.24C107.961 105.24 107.473 105.056 107.217 104.688C106.961 104.304 106.833 103.832 106.833 103.272C106.833 102.952 106.873 102.64 106.953 102.336C107.033 102.032 107.161 101.76 107.337 101.52C107.513 101.28 107.753 101.088 108.057 100.944C108.361 100.8 108.737 100.728 109.185 100.728ZM109.713 99.048C109.313 99.048 108.985 99 108.729 98.904C108.473 98.808 108.273 98.664 108.129 98.472C107.985 98.264 107.881 98.016 107.817 97.728C107.769 97.424 107.745 97.08 107.745 96.696C107.745 96.552 107.745 96.4 107.745 96.24C107.761 96.064 107.777 95.848 107.793 95.592C107.825 95.336 107.849 95.016 107.865 94.632C107.897 94.248 107.937 93.76 107.985 93.168C108.033 92.56 108.089 91.832 108.153 90.984C108.217 90.136 108.289 89.12 108.369 87.936C108.385 87.584 108.425 87.376 108.489 87.312C108.537 87.264 108.665 87.24 108.873 87.24H110.289C111.169 87.24 111.793 87.416 112.161 87.768C112.545 88.104 112.737 88.504 112.737 88.968C112.737 89.256 112.705 89.64 112.641 90.12C112.593 90.584 112.521 91.104 112.425 91.68C112.329 92.256 112.217 92.864 112.089 93.504C111.977 94.128 111.857 94.752 111.729 95.376C111.617 95.984 111.505 96.568 111.393 97.128C111.281 97.688 111.185 98.168 111.105 98.568C111.073 98.76 111.017 98.888 110.937 98.952C110.873 99.016 110.753 99.048 110.577 99.048H109.713Z" fill="#12283C"/>
<defs>
<filter id="filter0_i_34_17" x="0" y="0" width="162" height="166" filterUnits="userSpaceOnUse" color-interpolation-filters="sRGB">
<feFlood flood-opacity="0" result="BackgroundImageFix"/>
<feBlend mode="normal" in="SourceGraphic" in2="BackgroundImageFix" result="shape"/>
<feColorMatrix in="SourceAlpha" type="matrix" values="0 0 0 0 0 0 0 0 0 0 0 0 0 0 0 0 0 0 127 0" result="hardAlpha"/>
<feOffset dy="4"/>
<feGaussianBlur stdDeviation="2"/>
<feComposite in2="hardAlpha" operator="arithmetic" k2="-1" k3="1"/>
<feColorMatrix type="matrix" values="0 0 0 0 0 0 0 0 0 0 0 0 0 0 0 0 0 0 0.25 0"/>
<feBlend mode="normal" in2="shape" result="effect1_innerShadow_34_17"/>
</filter>
</defs>
</svg>
