<svg width="170" height="170" viewBox="0 0 170 170" fill="none" xmlns="http://www.w3.org/2000/svg">
<g filter="url(#filter0_di_34_17)">
<g filter="url(#filter1_i_34_17)">
<circle cx="85" cy="81" r="81" fill="#F9D66A"/>
</g>
<circle cx="85" cy="81" r="80" stroke="#F9D66A" stroke-width="2"/>
<path d="M17.6586 66.952C16.9866 66.952 16.5066 66.792 16.2186 66.472C15.9306 66.136 15.7866 65.672 15.7866 65.08C15.7866 64.824 15.8186 64.544 15.8826 64.24C15.9466 63.936 16.0586 63.656 16.2186 63.4C16.3946 63.128 16.6346 62.904 16.9386 62.728C17.2586 62.536 17.6666 62.44 18.1626 62.44C18.8826 62.44 19.3706 62.632 19.6266 63.016C19.8826 63.384 20.0106 63.848 20.0106 64.408C20.0106 64.728 19.9706 65.04 19.8906 65.344C19.8106 65.648 19.6826 65.92 19.5066 66.16C19.3306 66.4 19.0906 66.592 18.7866 66.736C18.4826 66.88 18.1066 66.952 17.6586 66.952ZM17.1306 68.632C17.9146 68.632 18.4346 68.832 18.6906 69.232C18.9626 69.616 19.0986 70.2 19.0986 70.984C19.0986 71.128 19.0906 71.288 19.0746 71.464C19.0746 71.624 19.0666 71.832 19.0506 72.088C19.0346 72.344 19.0106 72.664 18.9786 73.048C18.9466 73.432 18.9066 73.928 18.8586 74.536C18.8106 75.128 18.7546 75.848 18.6906 76.696C18.6266 77.56 18.5546 78.576 18.4746 79.744C18.4586 79.92 18.4426 80.056 18.4266 80.152C18.4266 80.264 18.4106 80.336 18.3786 80.368C18.3306 80.416 18.1946 80.44 17.9706 80.44H16.5546C15.6746 80.44 15.0426 80.264 14.6586 79.912C14.2906 79.576 14.1066 79.176 14.1066 78.712C14.1066 78.424 14.1306 78.04 14.1786 77.56C14.2426 77.096 14.3226 76.576 14.4186 76C14.5146 75.424 14.6186 74.824 14.7306 74.2C14.8586 73.56 14.9786 72.936 15.0906 72.328C15.2186 71.704 15.3386 71.12 15.4506 70.576C15.5626 70.016 15.6586 69.528 15.7386 69.112C15.7706 68.92 15.8186 68.792 15.8826 68.728C15.9626 68.664 16.0906 68.632 16.2666 68.632H17.1306ZM33.8378 78.832C33.8378 78.96 33.7658 79.12 33.6218 79.312C33.4778 79.52 33.2698 79.72 32.9978 79.912C32.7418 80.12 32.4298 80.296 32.0618 80.44C31.7098 80.584 31.3178 80.656 30.8858 80.656C30.3578 80.656 29.9018 80.536 29.5178 80.296C29.1338 80.072 28.7898 79.76 28.4858 79.36C28.1978 78.96 27.9418 78.48 27.7178 77.92C27.4938 77.376 27.2778 76.792 27.0698 76.168C26.0458 76.056 25.1898 75.784 24.5018 75.352C23.8138 74.92 23.2618 74.368 22.8458 73.696C22.4458 73.024 22.1578 72.264 21.9818 71.416C21.8058 70.552 21.7178 69.632 21.7178 68.656C21.7178 67.408 21.8538 66.192 22.1258 65.008C22.4138 63.808 22.8778 62.744 23.5178 61.816C24.1738 60.872 25.0298 60.12 26.0858 59.56C27.1418 58.984 28.4458 58.696 29.9978 58.696C31.1338 58.696 32.1018 58.864 32.9018 59.2C33.7018 59.52 34.3498 59.992 34.8458 60.616C35.3578 61.224 35.7258 61.984 35.9498 62.896C36.1898 63.792 36.3098 64.816 36.3098 65.968C36.3098 66.8 36.2378 67.72 36.0938 68.728C35.9498 69.72 35.6778 70.688 35.2778 71.632C34.8778 72.56 34.3258 73.408 33.6218 74.176C32.9338 74.928 32.0298 75.488 30.9098 75.856C31.1498 76.096 31.4378 76.368 31.7738 76.672C32.1098 76.976 32.4298 77.264 32.7338 77.536C33.0378 77.824 33.2938 78.08 33.5018 78.304C33.7258 78.544 33.8378 78.72 33.8378 78.832ZM29.4938 62.416C28.7738 62.416 28.1978 62.632 27.7658 63.064C27.3338 63.496 26.9978 64.024 26.7578 64.648C26.5338 65.272 26.3818 65.928 26.3018 66.616C26.2218 67.288 26.1818 67.872 26.1818 68.368C26.1818 69.76 26.3898 70.8 26.8058 71.488C27.2378 72.16 27.8378 72.496 28.6058 72.496C29.2778 72.496 29.8218 72.264 30.2378 71.8C30.6698 71.32 31.0058 70.752 31.2458 70.096C31.4858 69.424 31.6458 68.728 31.7258 68.008C31.8058 67.272 31.8458 66.64 31.8458 66.112C31.8458 64.96 31.6698 64.056 31.3178 63.4C30.9658 62.744 30.3578 62.416 29.4938 62.416ZM51.5892 68.176C51.5412 68.656 51.4692 69.192 51.3732 69.784C51.2772 70.36 51.1252 70.952 50.9172 71.56C50.7252 72.152 50.4612 72.728 50.1252 73.288C49.7892 73.848 49.3572 74.352 48.8292 74.8C48.3012 75.232 47.6612 75.584 46.9092 75.856C46.1732 76.112 45.2932 76.24 44.2692 76.24C43.2292 76.24 42.3412 76.096 41.6052 75.808C40.8692 75.504 40.2692 75.096 39.8052 74.584C39.3412 74.056 39.0052 73.448 38.7972 72.76C38.5892 72.072 38.4852 71.336 38.4852 70.552C38.4852 70.2 38.5012 69.728 38.5332 69.136C38.5652 68.528 38.6052 67.872 38.6532 67.168C38.7172 66.464 38.7812 65.736 38.8452 64.984C38.9092 64.216 38.9652 63.488 39.0132 62.8C39.0772 62.112 39.1332 61.496 39.1812 60.952C39.2292 60.392 39.2612 59.968 39.2772 59.68C39.2932 59.376 39.3332 59.184 39.3972 59.104C39.4612 59.008 39.5572 58.96 39.6852 58.96H41.0052C41.9812 58.96 42.6372 59.168 42.9732 59.584C43.3092 60 43.4772 60.616 43.4772 61.432C43.4772 61.48 43.4612 61.696 43.4292 62.08C43.4132 62.448 43.3812 62.904 43.3332 63.448C43.3012 63.992 43.2612 64.584 43.2132 65.224C43.1812 65.864 43.1412 66.472 43.0932 67.048C43.0612 67.624 43.0292 68.128 42.9972 68.56C42.9812 68.992 42.9732 69.28 42.9732 69.424C42.9732 69.696 42.9812 70.008 42.9972 70.36C43.0292 70.712 43.0932 71.048 43.1892 71.368C43.3012 71.688 43.4692 71.96 43.6932 72.184C43.9332 72.392 44.2692 72.496 44.7012 72.496C45.2452 72.496 45.6852 72.312 46.0212 71.944C46.3732 71.576 46.6372 71.136 46.8132 70.624C47.0052 70.112 47.1332 69.592 47.1972 69.064C47.2772 68.536 47.3332 68.104 47.3652 67.768C47.4292 66.952 47.4932 66.112 47.5572 65.248C47.6372 64.384 47.7012 63.576 47.7492 62.824C47.8132 62.072 47.8612 61.416 47.8932 60.856C47.9252 60.296 47.9412 59.912 47.9412 59.704C47.9412 59.384 47.9652 59.184 48.0132 59.104C48.0612 59.008 48.1652 58.96 48.3252 58.96H49.6452C50.1892 58.96 50.6132 59.008 50.9172 59.104C51.2372 59.2 51.4772 59.328 51.6372 59.488C51.7972 59.648 51.8932 59.832 51.9252 60.04C51.9732 60.248 51.9972 60.464 51.9972 60.688C51.9972 60.896 51.9812 61.288 51.9492 61.864C51.9332 62.44 51.9092 63.096 51.8772 63.832C51.8452 64.568 51.8052 65.328 51.7572 66.112C51.7092 66.896 51.6532 67.584 51.5892 68.176ZM56.6575 76C55.7615 76 55.1215 75.824 54.7375 75.472C54.3535 75.12 54.1615 74.616 54.1615 73.96C54.1615 73.64 54.1855 73.096 54.2335 72.328C54.2815 71.544 54.3455 70.656 54.4255 69.664C54.5055 68.672 54.5855 67.624 54.6655 66.52C54.7455 65.416 54.8255 64.376 54.9055 63.4C54.9855 62.424 55.0495 61.568 55.0975 60.832C55.1455 60.096 55.1695 59.592 55.1695 59.32C55.1695 59.08 55.2975 58.96 55.5535 58.96H56.8735C57.8495 58.96 58.5055 59.168 58.8415 59.584C59.1775 60 59.3455 60.616 59.3455 61.432C59.3455 61.512 59.3295 61.768 59.2975 62.2C59.2815 62.632 59.2495 63.176 59.2015 63.832C59.1535 64.488 59.0975 65.224 59.0335 66.04C58.9855 66.84 58.9295 67.664 58.8655 68.512C58.8175 69.36 58.7615 70.192 58.6975 71.008C58.6495 71.808 58.6015 72.536 58.5535 73.192C58.5055 73.848 58.4655 74.4 58.4335 74.848C58.4015 75.28 58.3775 75.544 58.3615 75.64C58.3455 75.768 58.3135 75.864 58.2655 75.928C58.2175 75.976 58.1215 76 57.9775 76H56.6575ZM64.2044 76C63.3084 76 62.6684 75.824 62.2844 75.472C61.9004 75.12 61.7084 74.616 61.7084 73.96C61.7084 73.64 61.7324 73.096 61.7804 72.328C61.8284 71.544 61.8924 70.656 61.9724 69.664C62.0524 68.672 62.1324 67.624 62.2124 66.52C62.2924 65.416 62.3724 64.376 62.4524 63.4C62.5324 62.424 62.5964 61.568 62.6444 60.832C62.6924 60.096 62.7164 59.592 62.7164 59.32C62.7164 59.08 62.8444 58.96 63.1004 58.96H71.5484C71.6444 58.96 71.7324 58.984 71.8124 59.032C71.8924 59.08 71.9324 59.168 71.9324 59.296L71.8364 60.712C71.8044 61.192 71.6684 61.584 71.4284 61.888C71.2044 62.176 70.7324 62.32 70.0124 62.32H66.7004L66.4604 65.704H69.8684C69.9644 65.704 70.0524 65.728 70.1324 65.776C70.2124 65.824 70.2524 65.912 70.2524 66.04L70.1564 67.456C70.1244 67.936 69.9884 68.328 69.7484 68.632C69.5244 68.92 69.0524 69.064 68.3324 69.064H66.2444L65.9804 72.64H71.2604C71.3564 72.64 71.4444 72.672 71.5244 72.736C71.6044 72.784 71.6444 72.864 71.6444 72.976L71.5484 74.392C71.5164 74.872 71.3804 75.264 71.1404 75.568C70.9164 75.856 70.4444 76 69.7244 76H64.2044ZM76.2278 76C75.3158 76 74.6678 75.824 74.2838 75.472C73.9158 75.104 73.7318 74.568 73.7318 73.864C73.7318 73.672 73.7398 73.352 73.7558 72.904C73.7878 72.44 73.8278 71.896 73.8758 71.272C73.9238 70.648 73.9718 69.968 74.0198 69.232C74.0838 68.48 74.1478 67.72 74.2118 66.952C74.3398 65.336 74.4278 64.024 74.4758 63.016C74.5398 62.008 74.5878 61.216 74.6198 60.64C74.6678 59.92 74.7158 59.464 74.7638 59.272C74.8118 59.064 74.9158 58.96 75.0758 58.96C75.5718 58.96 76.0758 58.952 76.5878 58.936C77.1158 58.904 77.6198 58.872 78.0998 58.84C78.5798 58.808 79.0278 58.784 79.4438 58.768C79.8758 58.736 80.2598 58.72 80.5958 58.72C81.6198 58.72 82.4998 58.848 83.2358 59.104C83.9718 59.36 84.5638 59.72 85.0118 60.184C85.4758 60.648 85.8118 61.208 86.0198 61.864C86.2438 62.52 86.3558 63.256 86.3558 64.072C86.3558 65.32 86.1078 66.432 85.6118 67.408C85.1158 68.384 84.3238 69.128 83.2358 69.64L85.2518 72.52C85.6198 73.064 85.8998 73.488 86.0918 73.792C86.2838 74.08 86.3798 74.296 86.3798 74.44C86.3798 74.552 86.3078 74.712 86.1638 74.92C86.0358 75.112 85.8358 75.312 85.5638 75.52C85.3078 75.712 84.9878 75.88 84.6038 76.024C84.2358 76.168 83.8198 76.24 83.3558 76.24C82.8438 76.24 82.3958 76.072 82.0118 75.736C81.6438 75.4 81.3078 74.96 81.0038 74.416C80.7158 73.856 80.4598 73.216 80.2358 72.496C80.0278 71.776 79.8278 71.024 79.6358 70.24C79.0598 70.208 78.5878 70.152 78.2198 70.072C78.1718 70.776 78.1238 71.448 78.0758 72.088C78.0278 72.728 77.9878 73.304 77.9558 73.816C77.9238 74.312 77.8918 74.728 77.8598 75.064C77.8278 75.384 77.8118 75.576 77.8118 75.64C77.7958 75.768 77.7638 75.864 77.7158 75.928C77.6678 75.976 77.5718 76 77.4278 76H76.2278ZM80.1158 62.32C79.9238 62.32 79.7078 62.336 79.4678 62.368C79.2278 62.384 78.9718 62.408 78.6998 62.44C78.6678 63 78.6278 63.672 78.5798 64.456C78.5478 65.224 78.4998 66.048 78.4358 66.928C78.9958 67.056 79.4838 67.12 79.8998 67.12C80.3958 67.12 80.7958 67.024 81.0998 66.832C81.4198 66.64 81.6678 66.408 81.8438 66.136C82.0198 65.848 82.1318 65.544 82.1798 65.224C82.2438 64.904 82.2758 64.616 82.2758 64.36C82.2758 63.704 82.1158 63.2 81.7958 62.848C81.4758 62.496 80.9158 62.32 80.1158 62.32ZM97.0403 58.696C98.2083 58.696 99.2083 58.864 100.04 59.2C100.872 59.52 101.552 60 102.08 60.64C102.608 61.264 102.992 62.032 103.232 62.944C103.472 63.84 103.592 64.864 103.592 66.016C103.592 66.656 103.544 67.352 103.448 68.104C103.368 68.856 103.208 69.616 102.968 70.384C102.744 71.136 102.432 71.864 102.032 72.568C101.632 73.272 101.112 73.896 100.472 74.44C99.8483 74.984 99.0963 75.424 98.2163 75.76C97.3363 76.08 96.2963 76.24 95.0963 76.24C93.7683 76.24 92.6643 76.04 91.7843 75.64C90.9203 75.24 90.2243 74.704 89.6963 74.032C89.1843 73.344 88.8163 72.536 88.5923 71.608C88.3843 70.68 88.2803 69.688 88.2803 68.632C88.2803 67.384 88.4243 66.168 88.7123 64.984C89.0003 63.784 89.4803 62.72 90.1523 61.792C90.8403 60.864 91.7443 60.12 92.8643 59.56C93.9843 58.984 95.3763 58.696 97.0403 58.696ZM96.5363 62.416C95.9763 62.416 95.4883 62.52 95.0723 62.728C94.6723 62.92 94.3283 63.184 94.0403 63.52C93.7683 63.856 93.5443 64.232 93.3683 64.648C93.2083 65.064 93.0803 65.496 92.9843 65.944C92.8883 66.376 92.8243 66.8 92.7923 67.216C92.7603 67.616 92.7443 67.976 92.7443 68.296C92.7443 69.752 92.9843 70.816 93.4643 71.488C93.9603 72.16 94.6563 72.496 95.5523 72.496C96.2883 72.496 96.8883 72.264 97.3523 71.8C97.8163 71.32 98.1763 70.752 98.4323 70.096C98.7043 69.424 98.8883 68.736 98.9843 68.032C99.0803 67.312 99.1283 66.704 99.1283 66.208C99.1283 65.04 98.9283 64.12 98.5283 63.448C98.1283 62.76 97.4643 62.416 96.5363 62.416ZM124.011 68.176C123.963 68.656 123.891 69.192 123.795 69.784C123.699 70.36 123.547 70.952 123.339 71.56C123.147 72.152 122.883 72.728 122.547 73.288C122.211 73.848 121.779 74.352 121.251 74.8C120.723 75.232 120.083 75.584 119.331 75.856C118.595 76.112 117.715 76.24 116.691 76.24C115.651 76.24 114.763 76.096 114.027 75.808C113.291 75.504 112.691 75.096 112.227 74.584C111.763 74.056 111.427 73.448 111.219 72.76C111.011 72.072 110.907 71.336 110.907 70.552C110.907 70.2 110.923 69.728 110.955 69.136C110.987 68.528 111.027 67.872 111.075 67.168C111.139 66.464 111.203 65.736 111.267 64.984C111.331 64.216 111.387 63.488 111.435 62.8C111.499 62.112 111.555 61.496 111.603 60.952C111.651 60.392 111.683 59.968 111.699 59.68C111.715 59.376 111.755 59.184 111.819 59.104C111.883 59.008 111.979 58.96 112.107 58.96H113.427C114.403 58.96 115.059 59.168 115.395 59.584C115.731 60 115.899 60.616 115.899 61.432C115.899 61.48 115.883 61.696 115.851 62.08C115.835 62.448 115.803 62.904 115.755 63.448C115.723 63.992 115.683 64.584 115.635 65.224C115.603 65.864 115.563 66.472 115.515 67.048C115.483 67.624 115.451 68.128 115.419 68.56C115.403 68.992 115.395 69.28 115.395 69.424C115.395 69.696 115.403 70.008 115.419 70.36C115.451 70.712 115.515 71.048 115.611 71.368C115.723 71.688 115.891 71.96 116.115 72.184C116.355 72.392 116.691 72.496 117.123 72.496C117.667 72.496 118.107 72.312 118.443 71.944C118.795 71.576 119.059 71.136 119.235 70.624C119.427 70.112 119.555 69.592 119.619 69.064C119.699 68.536 119.755 68.104 119.787 67.768C119.851 66.952 119.915 66.112 119.979 65.248C120.059 64.384 120.123 63.576 120.171 62.824C120.235 62.072 120.283 61.416 120.315 60.856C120.347 60.296 120.363 59.912 120.363 59.704C120.363 59.384 120.387 59.184 120.435 59.104C120.483 59.008 120.587 58.96 120.747 58.96H122.067C122.611 58.96 123.035 59.008 123.339 59.104C123.659 59.2 123.899 59.328 124.059 59.488C124.219 59.648 124.315 59.832 124.347 60.04C124.395 60.248 124.419 60.464 124.419 60.688C124.419 60.896 124.403 61.288 124.371 61.864C124.355 62.44 124.331 63.096 124.299 63.832C124.267 64.568 124.227 65.328 124.179 66.112C124.131 66.896 124.075 67.584 124.011 68.176ZM137.335 76C136.679 76 136.191 75.904 135.871 75.712C135.551 75.52 135.319 75.28 135.175 74.992C134.343 73.28 133.559 71.64 132.823 70.072C132.103 68.504 131.367 66.92 130.615 65.32C130.631 67.048 130.655 68.768 130.687 70.48C130.719 72.192 130.751 73.912 130.783 75.64C130.783 75.88 130.655 76 130.399 76H129.079C128.167 76 127.519 75.824 127.135 75.472C126.767 75.104 126.583 74.568 126.583 73.864C126.583 73.672 126.591 73.352 126.607 72.904C126.639 72.44 126.679 71.896 126.727 71.272C126.775 70.648 126.823 69.968 126.871 69.232C126.935 68.48 126.999 67.72 127.063 66.952C127.159 65.736 127.239 64.728 127.303 63.928C127.367 63.128 127.415 62.456 127.447 61.912C127.495 61.352 127.527 60.88 127.543 60.496C127.559 60.096 127.575 59.704 127.591 59.32C127.591 59.08 127.719 58.96 127.975 58.96H129.895C130.423 58.96 130.855 59.024 131.191 59.152C131.527 59.264 131.799 59.424 132.007 59.632C132.231 59.84 132.407 60.08 132.535 60.352C132.663 60.608 132.783 60.88 132.895 61.168C133.279 62.16 133.615 63.016 133.903 63.736C134.207 64.456 134.471 65.088 134.695 65.632C134.919 66.176 135.111 66.648 135.271 67.048C135.447 67.448 135.607 67.816 135.751 68.152C135.895 68.488 136.039 68.816 136.183 69.136C136.327 69.44 136.479 69.776 136.639 70.144C136.639 69.2 136.631 68.232 136.615 67.24C136.615 66.232 136.607 65.256 136.591 64.312C136.591 63.352 136.583 62.432 136.567 61.552C136.567 60.672 136.567 59.88 136.567 59.176C136.567 59.032 136.703 58.96 136.975 58.96H138.295C138.823 58.96 139.239 59.016 139.543 59.128C139.863 59.224 140.111 59.376 140.287 59.584C140.463 59.776 140.575 60.016 140.623 60.304C140.687 60.592 140.719 60.92 140.719 61.288C140.719 61.688 140.695 62.304 140.647 63.136C140.599 63.952 140.543 64.872 140.479 65.896C140.415 66.92 140.343 67.984 140.263 69.088C140.183 70.176 140.103 71.184 140.023 72.112C139.959 73.04 139.895 73.832 139.831 74.488C139.783 75.128 139.751 75.504 139.735 75.616C139.735 75.744 139.687 75.84 139.591 75.904C139.511 75.968 139.415 76 139.303 76H137.335ZM150.667 58.96C151.067 58.96 151.395 59.04 151.651 59.2C151.923 59.344 152.147 59.544 152.323 59.8C152.499 60.04 152.643 60.32 152.755 60.64C152.867 60.96 152.963 61.288 153.043 61.624C153.683 64.216 154.211 66.352 154.627 68.032C155.043 69.712 155.371 71.072 155.611 72.112C155.851 73.136 156.019 73.896 156.115 74.392C156.211 74.888 156.259 75.232 156.259 75.424C156.259 75.648 156.203 75.8 156.091 75.88C155.995 75.96 155.835 76 155.611 76H154.387C153.699 76 153.147 75.92 152.731 75.76C152.331 75.584 152.019 75.336 151.795 75.016C151.587 74.696 151.435 74.312 151.339 73.864C151.243 73.4 151.163 72.88 151.099 72.304H146.923L146.131 75.616C146.051 75.872 145.867 76 145.579 76H144.307C144.051 76 143.787 75.976 143.515 75.928C143.243 75.864 142.995 75.768 142.771 75.64C142.563 75.512 142.387 75.352 142.243 75.16C142.099 74.952 142.027 74.704 142.027 74.416C142.027 74.064 142.139 73.488 142.363 72.688C142.587 71.888 142.867 70.984 143.203 69.976C143.555 68.952 143.939 67.888 144.355 66.784C144.787 65.664 145.203 64.608 145.603 63.616C146.003 62.624 146.363 61.752 146.683 61C147.019 60.248 147.275 59.72 147.451 59.416C147.579 59.192 147.691 59.064 147.787 59.032C147.899 58.984 148.099 58.96 148.387 58.96H150.667ZM147.787 68.824H150.547L149.539 62.488L147.787 68.824ZM61.2092 101.496C61.8652 101.496 62.4172 101.4 62.8652 101.208C63.3292 101.016 63.7212 100.8 64.0412 100.56C64.3612 100.32 64.6412 100.104 64.8812 99.912C65.1372 99.72 65.3932 99.624 65.6492 99.624C65.9692 99.624 66.1292 99.864 66.1292 100.344C66.1292 100.6 66.0972 100.912 66.0332 101.28C65.9692 101.632 65.8812 102.032 65.7692 102.48C65.7052 102.752 65.5452 103.048 65.2892 103.368C65.0492 103.688 64.7132 103.992 64.2812 104.28C63.8492 104.552 63.3132 104.784 62.6732 104.976C62.0492 105.152 61.3292 105.24 60.5132 105.24C59.6972 105.24 58.8812 105.12 58.0652 104.88C57.2492 104.64 56.5212 104.232 55.8812 103.656C55.2412 103.08 54.7212 102.304 54.3212 101.328C53.9212 100.352 53.7212 99.128 53.7212 97.656C53.7212 97.128 53.7532 96.52 53.8172 95.832C53.8972 95.128 54.0412 94.408 54.2492 93.672C54.4572 92.936 54.7452 92.216 55.1132 91.512C55.4972 90.792 55.9852 90.152 56.5772 89.592C57.1692 89.032 57.8892 88.584 58.7372 88.248C59.6012 87.896 60.6252 87.72 61.8092 87.72C62.7532 87.72 63.5692 87.832 64.2572 88.056C64.9612 88.28 65.5372 88.592 65.9852 88.992C66.4492 89.376 66.7852 89.832 66.9932 90.36C67.2172 90.888 67.3292 91.448 67.3292 92.04C67.3292 93.064 67.0252 93.816 66.4172 94.296C65.8252 94.76 64.9772 94.992 63.8732 94.992C63.5212 94.992 63.2972 94.968 63.2012 94.92C63.1212 94.856 63.0812 94.736 63.0812 94.56C63.0652 94.016 63.0492 93.544 63.0332 93.144C63.0172 92.744 62.9612 92.416 62.8652 92.16C62.7692 91.888 62.6172 91.696 62.4092 91.584C62.2172 91.456 61.9452 91.392 61.5932 91.392C61.0812 91.392 60.6412 91.504 60.2732 91.728C59.9212 91.936 59.6172 92.216 59.3612 92.568C59.1212 92.904 58.9212 93.288 58.7612 93.72C58.6172 94.152 58.4972 94.592 58.4012 95.04C58.3212 95.488 58.2652 95.92 58.2332 96.336C58.2172 96.752 58.2092 97.112 58.2092 97.416C58.2092 98.888 58.4492 99.936 58.9292 100.56C59.4252 101.184 60.1852 101.496 61.2092 101.496ZM76.2176 87.96C76.6176 87.96 76.9456 88.04 77.2016 88.2C77.4736 88.344 77.6976 88.544 77.8736 88.8C78.0496 89.04 78.1936 89.32 78.3056 89.64C78.4176 89.96 78.5136 90.288 78.5936 90.624C79.2336 93.216 79.7616 95.352 80.1776 97.032C80.5936 98.712 80.9216 100.072 81.1616 101.112C81.4016 102.136 81.5696 102.896 81.6656 103.392C81.7616 103.888 81.8096 104.232 81.8096 104.424C81.8096 104.648 81.7536 104.8 81.6416 104.88C81.5456 104.96 81.3856 105 81.1616 105H79.9376C79.2496 105 78.6976 104.92 78.2816 104.76C77.8816 104.584 77.5696 104.336 77.3456 104.016C77.1376 103.696 76.9856 103.312 76.8896 102.864C76.7936 102.4 76.7136 101.88 76.6496 101.304H72.4736L71.6816 104.616C71.6016 104.872 71.4176 105 71.1296 105H69.8576C69.6016 105 69.3376 104.976 69.0656 104.928C68.7936 104.864 68.5456 104.768 68.3216 104.64C68.1136 104.512 67.9376 104.352 67.7936 104.16C67.6496 103.952 67.5776 103.704 67.5776 103.416C67.5776 103.064 67.6896 102.488 67.9136 101.688C68.1376 100.888 68.4176 99.984 68.7536 98.976C69.1056 97.952 69.4896 96.888 69.9056 95.784C70.3376 94.664 70.7536 93.608 71.1536 92.616C71.5536 91.624 71.9136 90.752 72.2336 90C72.5696 89.248 72.8256 88.72 73.0016 88.416C73.1296 88.192 73.2416 88.064 73.3376 88.032C73.4496 87.984 73.6496 87.96 73.9376 87.96H76.2176ZM73.3376 97.824H76.0976L75.0896 91.488L73.3376 97.824ZM90.117 87.72C91.621 87.72 92.733 88.048 93.453 88.704C94.189 89.36 94.557 90.216 94.557 91.272C94.557 92.168 94.309 92.856 93.813 93.336C93.317 93.8 92.605 94.032 91.677 94.032C91.389 94.032 91.205 94.008 91.125 93.96C91.045 93.896 91.005 93.776 91.005 93.6C91.005 93.44 90.989 93.232 90.957 92.976C90.941 92.72 90.885 92.472 90.789 92.232C90.693 91.992 90.541 91.792 90.333 91.632C90.125 91.456 89.837 91.368 89.469 91.368C88.957 91.368 88.501 91.528 88.101 91.848C87.701 92.152 87.501 92.552 87.501 93.048C87.501 93.48 87.661 93.832 87.981 94.104C88.317 94.376 88.733 94.632 89.229 94.872C89.725 95.096 90.261 95.328 90.837 95.568C91.429 95.808 91.973 96.128 92.469 96.528C92.965 96.912 93.373 97.4 93.693 97.992C94.029 98.568 94.197 99.304 94.197 100.2C94.197 100.904 94.077 101.568 93.837 102.192C93.613 102.8 93.269 103.336 92.805 103.8C92.357 104.248 91.781 104.6 91.077 104.856C90.389 105.112 89.581 105.24 88.653 105.24C87.853 105.24 87.109 105.152 86.421 104.976C85.749 104.8 85.157 104.584 84.645 104.328C84.149 104.056 83.757 103.768 83.469 103.464C83.181 103.144 83.037 102.856 83.037 102.6C83.037 101.544 83.093 100.784 83.205 100.32C83.333 99.856 83.557 99.624 83.877 99.624C84.101 99.624 84.333 99.72 84.573 99.912C84.829 100.104 85.117 100.32 85.437 100.56C85.757 100.8 86.125 101.016 86.541 101.208C86.973 101.4 87.469 101.496 88.029 101.496C88.253 101.496 88.469 101.48 88.677 101.448C88.901 101.4 89.093 101.328 89.253 101.232C89.429 101.136 89.565 101.008 89.661 100.848C89.773 100.688 89.829 100.496 89.829 100.272C89.829 99.872 89.677 99.552 89.373 99.312C89.069 99.072 88.685 98.856 88.221 98.664C87.757 98.456 87.253 98.248 86.709 98.04C86.181 97.816 85.685 97.52 85.221 97.152C84.757 96.768 84.373 96.28 84.069 95.688C83.765 95.096 83.613 94.336 83.613 93.408C83.613 92.368 83.805 91.488 84.189 90.768C84.589 90.048 85.093 89.464 85.701 89.016C86.325 88.552 87.021 88.224 87.789 88.032C88.573 87.824 89.349 87.72 90.117 87.72ZM104.061 87.96C104.461 87.96 104.789 88.04 105.045 88.2C105.317 88.344 105.541 88.544 105.717 88.8C105.893 89.04 106.037 89.32 106.149 89.64C106.261 89.96 106.357 90.288 106.437 90.624C107.077 93.216 107.605 95.352 108.021 97.032C108.437 98.712 108.765 100.072 109.005 101.112C109.245 102.136 109.413 102.896 109.509 103.392C109.605 103.888 109.653 104.232 109.653 104.424C109.653 104.648 109.597 104.8 109.485 104.88C109.389 104.96 109.229 105 109.005 105H107.781C107.093 105 106.541 104.92 106.125 104.76C105.725 104.584 105.413 104.336 105.189 104.016C104.981 103.696 104.829 103.312 104.733 102.864C104.637 102.4 104.557 101.88 104.493 101.304H100.317L99.5253 104.616C99.4453 104.872 99.2613 105 98.9733 105H97.7013C97.4453 105 97.1813 104.976 96.9093 104.928C96.6373 104.864 96.3893 104.768 96.1653 104.64C95.9573 104.512 95.7813 104.352 95.6373 104.16C95.4933 103.952 95.4213 103.704 95.4213 103.416C95.4213 103.064 95.5333 102.488 95.7573 101.688C95.9813 100.888 96.2613 99.984 96.5973 98.976C96.9493 97.952 97.3333 96.888 97.7493 95.784C98.1813 94.664 98.5973 93.608 98.9973 92.616C99.3973 91.624 99.7573 90.752 100.077 90C100.413 89.248 100.669 88.72 100.845 88.416C100.973 88.192 101.085 88.064 101.181 88.032C101.293 87.984 101.493 87.96 101.781 87.96H104.061ZM101.181 97.824H103.941L102.933 91.488L101.181 97.824ZM113.185 100.728C113.857 100.728 114.337 100.896 114.625 101.232C114.913 101.552 115.057 102.008 115.057 102.6C115.057 102.856 115.025 103.136 114.961 103.44C114.897 103.744 114.777 104.032 114.601 104.304C114.441 104.56 114.201 104.784 113.881 104.976C113.577 105.152 113.177 105.24 112.681 105.24C111.961 105.24 111.473 105.056 111.217 104.688C110.961 104.304 110.833 103.832 110.833 103.272C110.833 102.952 110.873 102.64 110.953 102.336C111.033 102.032 111.161 101.76 111.337 101.52C111.513 101.28 111.753 101.088 112.057 100.944C112.361 100.8 112.737 100.728 113.185 100.728ZM113.713 99.048C113.313 99.048 112.985 99 112.729 98.904C112.473 98.808 112.273 98.664 112.129 98.472C111.985 98.264 111.881 98.016 111.817 97.728C111.769 97.424 111.745 97.08 111.745 96.696C111.745 96.552 111.745 96.4 111.745 96.24C111.761 96.064 111.777 95.848 111.793 95.592C111.825 95.336 111.849 95.016 111.865 94.632C111.897 94.248 111.937 93.76 111.985 93.168C112.033 92.56 112.089 91.832 112.153 90.984C112.217 90.136 112.289 89.12 112.369 87.936C112.385 87.584 112.425 87.376 112.489 87.312C112.537 87.264 112.665 87.24 112.873 87.24H114.289C115.169 87.24 115.793 87.416 116.161 87.768C116.545 88.104 116.737 88.504 116.737 88.968C116.737 89.256 116.705 89.64 116.641 90.12C116.593 90.584 116.521 91.104 116.425 91.68C116.329 92.256 116.217 92.864 116.089 93.504C115.977 94.128 115.857 94.752 115.729 95.376C115.617 95.984 115.505 96.568 115.393 97.128C115.281 97.688 115.185 98.168 115.105 98.568C115.073 98.76 115.017 98.888 114.937 98.952C114.873 99.016 114.753 99.048 114.577 99.048H113.713Z" fill="#12283C"/>
</g>
<defs>
<filter id="filter0_di_34_17" x="0" y="0" width="170" height="170" filterUnits="userSpaceOnUse" color-interpolation-filters="sRGB">
<feFlood flood-opacity="0" result="BackgroundImageFix"/>
<feColorMatrix in="SourceAlpha" type="matrix" values="0 0 0 0 0 0 0 0 0 0 0 0 0 0 0 0 0 0 127 0" result="hardAlpha"/>
<feOffset dy="4"/>
<feGaussianBlur stdDeviation="2"/>
<feComposite in2="hardAlpha" operator="out"/>
<feColorMatrix type="matrix" values="0 0 0 0 0 0 0 0 0 0 0 0 0 0 0 0 0 0 0.25 0"/>
<feBlend mode="normal" in2="BackgroundImageFix" result="effect1_dropShadow_34_17"/>
<feBlend mode="normal" in="SourceGraphic" in2="effect1_dropShadow_34_17" result="shape"/>
<feColorMatrix in="SourceAlpha" type="matrix" values="0 0 0 0 0 0 0 0 0 0 0 0 0 0 0 0 0 0 127 0" result="hardAlpha"/>
<feOffset dy="4"/>
<feGaussianBlur stdDeviation="2"/>
<feComposite in2="hardAlpha" operator="arithmetic" k2="-1" k3="1"/>
<feColorMatrix type="matrix" values="0 0 0 0 0 0 0 0 0 0 0 0 0 0 0 0 0 0 0.25 0"/>
<feBlend mode="normal" in2="shape" result="effect2_innerShadow_34_17"/>
</filter>
<filter id="filter1_i_34_17" x="4" y="0" width="162" height="166" filterUnits="userSpaceOnUse" color-interpolation-filters="sRGB">
<feFlood flood-opacity="0" result="BackgroundImageFix"/>
<feBlend mode="normal" in="SourceGraphic" in2="BackgroundImageFix" result="shape"/>
<feColorMatrix in="SourceAlpha" type="matrix" values="0 0 0 0 0 0 0 0 0 0 0 0 0 0 0 0 0 0 127 0" result="hardAlpha"/>
<feOffset dy="4"/>
<feGaussianBlur stdDeviation="2"/>
<feComposite in2="hardAlpha" operator="arithmetic" k2="-1" k3="1"/>
<feColorMatrix type="matrix" values="0 0 0 0 0 0 0 0 0 0 0 0 0 0 0 0 0 0 0.25 0"/>
<feBlend mode="normal" in2="shape" result="effect1_innerShadow_34_17"/>
</filter>
</defs>
</svg>
