<svg width="162" height="162" viewBox="0 0 162 162" fill="none" xmlns="http://www.w3.org/2000/svg">
<g filter="url(#filter0_i_34_23)">
<circle cx="81" cy="81" r="81" fill="#BBEFFF"/>
</g>
<circle cx="81" cy="81" r="80" stroke="#BBEFFF" stroke-width="2"/>
<path d="M18.2875 66.952C17.6155 66.952 17.1355 66.792 16.8475 66.472C16.5595 66.136 16.4155 65.672 16.4155 65.08C16.4155 64.824 16.4475 64.544 16.5115 64.24C16.5755 63.936 16.6875 63.656 16.8475 63.4C17.0235 63.128 17.2635 62.904 17.5675 62.728C17.8875 62.536 18.2955 62.44 18.7915 62.44C19.5115 62.44 19.9995 62.632 20.2555 63.016C20.5115 63.384 20.6395 63.848 20.6395 64.408C20.6395 64.728 20.5995 65.04 20.5195 65.344C20.4395 65.648 20.3115 65.92 20.1355 66.16C19.9595 66.4 19.7195 66.592 19.4155 66.736C19.1115 66.88 18.7355 66.952 18.2875 66.952ZM17.7595 68.632C18.5435 68.632 19.0635 68.832 19.3195 69.232C19.5915 69.616 19.7275 70.2 19.7275 70.984C19.7275 71.128 19.7195 71.288 19.7035 71.464C19.7035 71.624 19.6955 71.832 19.6795 72.088C19.6635 72.344 19.6395 72.664 19.6075 73.048C19.5755 73.432 19.5355 73.928 19.4875 74.536C19.4395 75.128 19.3835 75.848 19.3195 76.696C19.2555 77.56 19.1835 78.576 19.1035 79.744C19.0875 79.92 19.0715 80.056 19.0555 80.152C19.0555 80.264 19.0395 80.336 19.0075 80.368C18.9595 80.416 18.8235 80.44 18.5995 80.44H17.1835C16.3035 80.44 15.6715 80.264 15.2875 79.912C14.9195 79.576 14.7355 79.176 14.7355 78.712C14.7355 78.424 14.7595 78.04 14.8075 77.56C14.8715 77.096 14.9515 76.576 15.0475 76C15.1435 75.424 15.2475 74.824 15.3595 74.2C15.4875 73.56 15.6075 72.936 15.7195 72.328C15.8475 71.704 15.9675 71.12 16.0795 70.576C16.1915 70.016 16.2875 69.528 16.3675 69.112C16.3995 68.92 16.4475 68.792 16.5115 68.728C16.5915 68.664 16.7195 68.632 16.8955 68.632H17.7595ZM30.1055 62.32L29.1935 75.64C29.1775 75.88 29.0895 76 28.9295 76H27.6095C26.7135 76 26.0735 75.824 25.6895 75.472C25.3055 75.12 25.1135 74.616 25.1135 73.96C25.1135 73.72 25.1215 73.36 25.1375 72.88C25.1695 72.4 25.2095 71.84 25.2575 71.2C25.3055 70.544 25.3535 69.84 25.4015 69.088C25.4655 68.32 25.5295 67.552 25.5935 66.784C25.6575 66 25.7135 65.224 25.7615 64.456C25.8255 63.688 25.8815 62.976 25.9295 62.32H22.0895C21.9135 62.32 21.8255 62.208 21.8255 61.984L21.8975 60.64C21.9135 60.432 21.9455 60.232 21.9935 60.04C22.0575 59.832 22.1535 59.648 22.2815 59.488C22.4095 59.328 22.5695 59.2 22.7615 59.104C22.9695 59.008 23.2175 58.96 23.5055 58.96H34.2335C34.3295 58.96 34.4175 58.984 34.4975 59.032C34.5775 59.08 34.6175 59.168 34.6175 59.296L34.5215 60.712C34.4895 61.192 34.3535 61.584 34.1135 61.888C33.8895 62.176 33.4175 62.32 32.6975 62.32H30.1055ZM37.8802 76C36.9842 76 36.3442 75.824 35.9602 75.472C35.5762 75.12 35.3842 74.616 35.3842 73.96C35.3842 73.64 35.4082 73.096 35.4562 72.328C35.5042 71.544 35.5682 70.656 35.6482 69.664C35.7282 68.672 35.8082 67.624 35.8882 66.52C35.9682 65.416 36.0482 64.376 36.1282 63.4C36.2082 62.424 36.2722 61.568 36.3202 60.832C36.3682 60.096 36.3922 59.592 36.3922 59.32C36.3922 59.08 36.5202 58.96 36.7762 58.96H45.2242C45.3202 58.96 45.4082 58.984 45.4882 59.032C45.5682 59.08 45.6082 59.168 45.6082 59.296L45.5122 60.712C45.4802 61.192 45.3442 61.584 45.1042 61.888C44.8802 62.176 44.4082 62.32 43.6882 62.32H40.3762L40.1362 65.704H43.5442C43.6402 65.704 43.7282 65.728 43.8082 65.776C43.8882 65.824 43.9282 65.912 43.9282 66.04L43.8322 67.456C43.8002 67.936 43.6642 68.328 43.4242 68.632C43.2002 68.92 42.7282 69.064 42.0082 69.064H39.9202L39.6562 72.64H44.9362C45.0322 72.64 45.1202 72.672 45.2002 72.736C45.2802 72.784 45.3202 72.864 45.3202 72.976L45.2242 74.392C45.1922 74.872 45.0562 75.264 44.8162 75.568C44.5922 75.856 44.1202 76 43.4002 76H37.8802ZM58.1596 76C57.5036 76 57.0156 75.904 56.6956 75.712C56.3756 75.52 56.1436 75.28 55.9996 74.992C55.1676 73.28 54.3836 71.64 53.6476 70.072C52.9276 68.504 52.1916 66.92 51.4396 65.32C51.4556 67.048 51.4796 68.768 51.5116 70.48C51.5436 72.192 51.5756 73.912 51.6076 75.64C51.6076 75.88 51.4796 76 51.2236 76H49.9036C48.9916 76 48.3436 75.824 47.9596 75.472C47.5916 75.104 47.4076 74.568 47.4076 73.864C47.4076 73.672 47.4156 73.352 47.4316 72.904C47.4636 72.44 47.5036 71.896 47.5516 71.272C47.5996 70.648 47.6476 69.968 47.6956 69.232C47.7596 68.48 47.8236 67.72 47.8876 66.952C47.9836 65.736 48.0636 64.728 48.1276 63.928C48.1916 63.128 48.2396 62.456 48.2716 61.912C48.3196 61.352 48.3516 60.88 48.3676 60.496C48.3836 60.096 48.3996 59.704 48.4156 59.32C48.4156 59.08 48.5436 58.96 48.7996 58.96H50.7196C51.2476 58.96 51.6796 59.024 52.0156 59.152C52.3516 59.264 52.6236 59.424 52.8316 59.632C53.0556 59.84 53.2316 60.08 53.3596 60.352C53.4876 60.608 53.6076 60.88 53.7196 61.168C54.1036 62.16 54.4396 63.016 54.7276 63.736C55.0316 64.456 55.2956 65.088 55.5196 65.632C55.7436 66.176 55.9356 66.648 56.0956 67.048C56.2716 67.448 56.4316 67.816 56.5756 68.152C56.7196 68.488 56.8636 68.816 57.0076 69.136C57.1516 69.44 57.3036 69.776 57.4636 70.144C57.4636 69.2 57.4556 68.232 57.4396 67.24C57.4396 66.232 57.4316 65.256 57.4156 64.312C57.4156 63.352 57.4076 62.432 57.3916 61.552C57.3916 60.672 57.3916 59.88 57.3916 59.176C57.3916 59.032 57.5276 58.96 57.7996 58.96H59.1196C59.6476 58.96 60.0636 59.016 60.3676 59.128C60.6876 59.224 60.9356 59.376 61.1116 59.584C61.2876 59.776 61.3996 60.016 61.4476 60.304C61.5116 60.592 61.5436 60.92 61.5436 61.288C61.5436 61.688 61.5196 62.304 61.4716 63.136C61.4236 63.952 61.3676 64.872 61.3036 65.896C61.2396 66.92 61.1676 67.984 61.0876 69.088C61.0076 70.176 60.9276 71.184 60.8476 72.112C60.7836 73.04 60.7196 73.832 60.6556 74.488C60.6076 75.128 60.5756 75.504 60.5596 75.616C60.5596 75.744 60.5116 75.84 60.4156 75.904C60.3356 75.968 60.2396 76 60.1276 76H58.1596ZM74.587 76C73.755 76 73.155 75.832 72.787 75.496C72.435 75.144 72.243 74.712 72.211 74.2C72.035 74.744 71.659 75.224 71.083 75.64C70.523 76.04 69.707 76.24 68.635 76.24C68.011 76.24 67.403 76.12 66.811 75.88C66.219 75.624 65.691 75.208 65.227 74.632C64.763 74.056 64.387 73.288 64.099 72.328C63.827 71.368 63.691 70.176 63.691 68.752C63.691 68.208 63.723 67.584 63.787 66.88C63.851 66.16 63.979 65.432 64.171 64.696C64.379 63.944 64.667 63.216 65.035 62.512C65.419 61.792 65.915 61.152 66.523 60.592C67.147 60.032 67.907 59.584 68.803 59.248C69.699 58.896 70.771 58.72 72.019 58.72C72.835 58.72 73.563 58.808 74.203 58.984C74.859 59.16 75.411 59.408 75.859 59.728C76.323 60.048 76.675 60.44 76.915 60.904C77.171 61.368 77.299 61.888 77.299 62.464C77.299 63.392 76.995 64.096 76.387 64.576C75.779 65.04 74.923 65.272 73.819 65.272C73.467 65.272 73.251 65.248 73.171 65.2C73.107 65.136 73.067 65.016 73.051 64.84C73.019 64.552 72.995 64.264 72.979 63.976C72.979 63.688 72.939 63.424 72.859 63.184C72.795 62.944 72.675 62.752 72.499 62.608C72.323 62.464 72.043 62.392 71.659 62.392C70.875 62.392 70.251 62.616 69.787 63.064C69.323 63.512 68.971 64.056 68.731 64.696C68.491 65.336 68.339 66 68.275 66.688C68.211 67.36 68.179 67.928 68.179 68.392C68.179 69.16 68.227 69.808 68.323 70.336C68.419 70.848 68.555 71.272 68.731 71.608C68.923 71.928 69.147 72.16 69.403 72.304C69.659 72.432 69.955 72.496 70.291 72.496C70.899 72.496 71.411 72.368 71.827 72.112C72.243 71.856 72.491 71.392 72.571 70.72L72.715 69.376C72.763 68.912 72.827 68.536 72.907 68.248C72.987 67.944 73.179 67.792 73.483 67.792H74.803C75.203 67.792 75.523 67.84 75.763 67.936C76.019 68.016 76.211 68.16 76.339 68.368C76.483 68.56 76.579 68.816 76.627 69.136C76.675 69.456 76.699 69.848 76.699 70.312C76.699 70.632 76.683 71.056 76.651 71.584C76.635 72.112 76.603 72.648 76.555 73.192C76.523 73.736 76.483 74.24 76.435 74.704C76.387 75.152 76.347 75.464 76.315 75.64C76.283 75.784 76.243 75.88 76.195 75.928C76.147 75.976 76.051 76 75.907 76H74.587ZM87.7786 58.696C88.9466 58.696 89.9466 58.864 90.7786 59.2C91.6106 59.52 92.2906 60 92.8186 60.64C93.3466 61.264 93.7306 62.032 93.9706 62.944C94.2106 63.84 94.3306 64.864 94.3306 66.016C94.3306 66.656 94.2826 67.352 94.1866 68.104C94.1066 68.856 93.9466 69.616 93.7066 70.384C93.4826 71.136 93.1706 71.864 92.7706 72.568C92.3706 73.272 91.8506 73.896 91.2106 74.44C90.5866 74.984 89.8346 75.424 88.9546 75.76C88.0746 76.08 87.0346 76.24 85.8346 76.24C84.5066 76.24 83.4026 76.04 82.5226 75.64C81.6586 75.24 80.9626 74.704 80.4346 74.032C79.9226 73.344 79.5546 72.536 79.3306 71.608C79.1226 70.68 79.0186 69.688 79.0186 68.632C79.0186 67.384 79.1626 66.168 79.4506 64.984C79.7386 63.784 80.2186 62.72 80.8906 61.792C81.5786 60.864 82.4826 60.12 83.6026 59.56C84.7226 58.984 86.1146 58.696 87.7786 58.696ZM87.2746 62.416C86.7146 62.416 86.2266 62.52 85.8106 62.728C85.4106 62.92 85.0666 63.184 84.7786 63.52C84.5066 63.856 84.2826 64.232 84.1066 64.648C83.9466 65.064 83.8186 65.496 83.7226 65.944C83.6266 66.376 83.5626 66.8 83.5306 67.216C83.4986 67.616 83.4826 67.976 83.4826 68.296C83.4826 69.752 83.7226 70.816 84.2026 71.488C84.6986 72.16 85.3946 72.496 86.2906 72.496C87.0266 72.496 87.6266 72.264 88.0906 71.8C88.5546 71.32 88.9146 70.752 89.1706 70.096C89.4426 69.424 89.6266 68.736 89.7226 68.032C89.8186 67.312 89.8666 66.704 89.8666 66.208C89.8666 65.04 89.6666 64.12 89.2666 63.448C88.8666 62.76 88.2026 62.416 87.2746 62.416ZM114.749 68.176C114.701 68.656 114.629 69.192 114.533 69.784C114.437 70.36 114.285 70.952 114.077 71.56C113.885 72.152 113.621 72.728 113.285 73.288C112.949 73.848 112.517 74.352 111.989 74.8C111.461 75.232 110.821 75.584 110.069 75.856C109.333 76.112 108.453 76.24 107.429 76.24C106.389 76.24 105.501 76.096 104.765 75.808C104.029 75.504 103.429 75.096 102.965 74.584C102.501 74.056 102.165 73.448 101.957 72.76C101.749 72.072 101.645 71.336 101.645 70.552C101.645 70.2 101.661 69.728 101.693 69.136C101.725 68.528 101.765 67.872 101.813 67.168C101.877 66.464 101.941 65.736 102.005 64.984C102.069 64.216 102.125 63.488 102.173 62.8C102.237 62.112 102.293 61.496 102.341 60.952C102.389 60.392 102.421 59.968 102.437 59.68C102.453 59.376 102.493 59.184 102.557 59.104C102.621 59.008 102.717 58.96 102.845 58.96H104.165C105.141 58.96 105.797 59.168 106.133 59.584C106.469 60 106.637 60.616 106.637 61.432C106.637 61.48 106.621 61.696 106.589 62.08C106.573 62.448 106.541 62.904 106.493 63.448C106.461 63.992 106.421 64.584 106.373 65.224C106.341 65.864 106.301 66.472 106.253 67.048C106.221 67.624 106.189 68.128 106.157 68.56C106.141 68.992 106.133 69.28 106.133 69.424C106.133 69.696 106.141 70.008 106.157 70.36C106.189 70.712 106.253 71.048 106.349 71.368C106.461 71.688 106.629 71.96 106.853 72.184C107.093 72.392 107.429 72.496 107.861 72.496C108.405 72.496 108.845 72.312 109.181 71.944C109.533 71.576 109.797 71.136 109.973 70.624C110.165 70.112 110.293 69.592 110.357 69.064C110.437 68.536 110.493 68.104 110.525 67.768C110.589 66.952 110.653 66.112 110.717 65.248C110.797 64.384 110.861 63.576 110.909 62.824C110.973 62.072 111.021 61.416 111.053 60.856C111.085 60.296 111.101 59.912 111.101 59.704C111.101 59.384 111.125 59.184 111.173 59.104C111.221 59.008 111.325 58.96 111.485 58.96H112.805C113.349 58.96 113.773 59.008 114.077 59.104C114.397 59.2 114.637 59.328 114.797 59.488C114.957 59.648 115.053 59.832 115.085 60.04C115.133 60.248 115.157 60.464 115.157 60.688C115.157 60.896 115.141 61.288 115.109 61.864C115.093 62.44 115.069 63.096 115.037 63.832C115.005 64.568 114.965 65.328 114.917 66.112C114.869 66.896 114.813 67.584 114.749 68.176ZM128.074 76C127.418 76 126.93 75.904 126.61 75.712C126.29 75.52 126.058 75.28 125.914 74.992C125.082 73.28 124.298 71.64 123.562 70.072C122.842 68.504 122.106 66.92 121.354 65.32C121.37 67.048 121.394 68.768 121.426 70.48C121.458 72.192 121.49 73.912 121.522 75.64C121.522 75.88 121.394 76 121.138 76H119.818C118.906 76 118.258 75.824 117.874 75.472C117.506 75.104 117.322 74.568 117.322 73.864C117.322 73.672 117.33 73.352 117.346 72.904C117.378 72.44 117.418 71.896 117.466 71.272C117.514 70.648 117.562 69.968 117.61 69.232C117.674 68.48 117.738 67.72 117.802 66.952C117.898 65.736 117.978 64.728 118.042 63.928C118.106 63.128 118.154 62.456 118.186 61.912C118.234 61.352 118.266 60.88 118.282 60.496C118.298 60.096 118.314 59.704 118.33 59.32C118.33 59.08 118.458 58.96 118.714 58.96H120.634C121.162 58.96 121.594 59.024 121.93 59.152C122.266 59.264 122.538 59.424 122.746 59.632C122.97 59.84 123.146 60.08 123.274 60.352C123.402 60.608 123.522 60.88 123.634 61.168C124.018 62.16 124.354 63.016 124.642 63.736C124.946 64.456 125.21 65.088 125.434 65.632C125.658 66.176 125.85 66.648 126.01 67.048C126.186 67.448 126.346 67.816 126.49 68.152C126.634 68.488 126.778 68.816 126.922 69.136C127.066 69.44 127.218 69.776 127.378 70.144C127.378 69.2 127.37 68.232 127.354 67.24C127.354 66.232 127.346 65.256 127.33 64.312C127.33 63.352 127.322 62.432 127.306 61.552C127.306 60.672 127.306 59.88 127.306 59.176C127.306 59.032 127.442 58.96 127.714 58.96H129.034C129.562 58.96 129.978 59.016 130.282 59.128C130.602 59.224 130.85 59.376 131.026 59.584C131.202 59.776 131.314 60.016 131.362 60.304C131.426 60.592 131.458 60.92 131.458 61.288C131.458 61.688 131.434 62.304 131.386 63.136C131.338 63.952 131.282 64.872 131.218 65.896C131.154 66.92 131.082 67.984 131.002 69.088C130.922 70.176 130.842 71.184 130.762 72.112C130.698 73.04 130.634 73.832 130.57 74.488C130.522 75.128 130.49 75.504 130.474 75.616C130.474 75.744 130.426 75.84 130.33 75.904C130.25 75.968 130.154 76 130.042 76H128.074ZM141.405 58.96C141.805 58.96 142.133 59.04 142.389 59.2C142.661 59.344 142.885 59.544 143.061 59.8C143.237 60.04 143.381 60.32 143.493 60.64C143.605 60.96 143.701 61.288 143.781 61.624C144.421 64.216 144.949 66.352 145.365 68.032C145.781 69.712 146.109 71.072 146.349 72.112C146.589 73.136 146.757 73.896 146.853 74.392C146.949 74.888 146.997 75.232 146.997 75.424C146.997 75.648 146.941 75.8 146.829 75.88C146.733 75.96 146.573 76 146.349 76H145.125C144.437 76 143.885 75.92 143.469 75.76C143.069 75.584 142.757 75.336 142.533 75.016C142.325 74.696 142.173 74.312 142.077 73.864C141.981 73.4 141.901 72.88 141.837 72.304H137.661L136.869 75.616C136.789 75.872 136.605 76 136.317 76H135.045C134.789 76 134.525 75.976 134.253 75.928C133.981 75.864 133.733 75.768 133.509 75.64C133.301 75.512 133.125 75.352 132.981 75.16C132.837 74.952 132.765 74.704 132.765 74.416C132.765 74.064 132.877 73.488 133.101 72.688C133.325 71.888 133.605 70.984 133.941 69.976C134.293 68.952 134.677 67.888 135.093 66.784C135.525 65.664 135.941 64.608 136.341 63.616C136.741 62.624 137.101 61.752 137.421 61C137.757 60.248 138.013 59.72 138.189 59.416C138.317 59.192 138.429 59.064 138.525 59.032C138.637 58.984 138.837 58.96 139.125 58.96H141.405ZM138.525 68.824H141.285L140.277 62.488L138.525 68.824ZM57.2092 101.496C57.8652 101.496 58.4172 101.4 58.8652 101.208C59.3292 101.016 59.7212 100.8 60.0412 100.56C60.3612 100.32 60.6412 100.104 60.8812 99.912C61.1372 99.72 61.3932 99.624 61.6492 99.624C61.9692 99.624 62.1292 99.864 62.1292 100.344C62.1292 100.6 62.0972 100.912 62.0332 101.28C61.9692 101.632 61.8812 102.032 61.7692 102.48C61.7052 102.752 61.5452 103.048 61.2892 103.368C61.0492 103.688 60.7132 103.992 60.2812 104.28C59.8492 104.552 59.3132 104.784 58.6732 104.976C58.0492 105.152 57.3292 105.24 56.5132 105.24C55.6972 105.24 54.8812 105.12 54.0652 104.88C53.2492 104.64 52.5212 104.232 51.8812 103.656C51.2412 103.08 50.7212 102.304 50.3212 101.328C49.9212 100.352 49.7212 99.128 49.7212 97.656C49.7212 97.128 49.7532 96.52 49.8172 95.832C49.8972 95.128 50.0412 94.408 50.2492 93.672C50.4572 92.936 50.7452 92.216 51.1132 91.512C51.4972 90.792 51.9852 90.152 52.5772 89.592C53.1692 89.032 53.8892 88.584 54.7372 88.248C55.6012 87.896 56.6252 87.72 57.8092 87.72C58.7532 87.72 59.5692 87.832 60.2572 88.056C60.9612 88.28 61.5372 88.592 61.9852 88.992C62.4492 89.376 62.7852 89.832 62.9932 90.36C63.2172 90.888 63.3292 91.448 63.3292 92.04C63.3292 93.064 63.0252 93.816 62.4172 94.296C61.8252 94.76 60.9772 94.992 59.8732 94.992C59.5212 94.992 59.2972 94.968 59.2012 94.92C59.1212 94.856 59.0812 94.736 59.0812 94.56C59.0652 94.016 59.0492 93.544 59.0332 93.144C59.0172 92.744 58.9612 92.416 58.8652 92.16C58.7692 91.888 58.6172 91.696 58.4092 91.584C58.2172 91.456 57.9452 91.392 57.5932 91.392C57.0812 91.392 56.6412 91.504 56.2732 91.728C55.9212 91.936 55.6172 92.216 55.3612 92.568C55.1212 92.904 54.9212 93.288 54.7612 93.72C54.6172 94.152 54.4972 94.592 54.4012 95.04C54.3212 95.488 54.2652 95.92 54.2332 96.336C54.2172 96.752 54.2092 97.112 54.2092 97.416C54.2092 98.888 54.4492 99.936 54.9292 100.56C55.4252 101.184 56.1852 101.496 57.2092 101.496ZM72.2176 87.96C72.6176 87.96 72.9456 88.04 73.2016 88.2C73.4736 88.344 73.6976 88.544 73.8736 88.8C74.0496 89.04 74.1936 89.32 74.3056 89.64C74.4176 89.96 74.5136 90.288 74.5936 90.624C75.2336 93.216 75.7616 95.352 76.1776 97.032C76.5936 98.712 76.9216 100.072 77.1616 101.112C77.4016 102.136 77.5696 102.896 77.6656 103.392C77.7616 103.888 77.8096 104.232 77.8096 104.424C77.8096 104.648 77.7536 104.8 77.6416 104.88C77.5456 104.96 77.3856 105 77.1616 105H75.9376C75.2496 105 74.6976 104.92 74.2816 104.76C73.8816 104.584 73.5696 104.336 73.3456 104.016C73.1376 103.696 72.9856 103.312 72.8896 102.864C72.7936 102.4 72.7136 101.88 72.6496 101.304H68.4736L67.6816 104.616C67.6016 104.872 67.4176 105 67.1296 105H65.8576C65.6016 105 65.3376 104.976 65.0656 104.928C64.7936 104.864 64.5456 104.768 64.3216 104.64C64.1136 104.512 63.9376 104.352 63.7936 104.16C63.6496 103.952 63.5776 103.704 63.5776 103.416C63.5776 103.064 63.6896 102.488 63.9136 101.688C64.1376 100.888 64.4176 99.984 64.7536 98.976C65.1056 97.952 65.4896 96.888 65.9056 95.784C66.3376 94.664 66.7536 93.608 67.1536 92.616C67.5536 91.624 67.9136 90.752 68.2336 90C68.5696 89.248 68.8256 88.72 69.0016 88.416C69.1296 88.192 69.2416 88.064 69.3376 88.032C69.4496 87.984 69.6496 87.96 69.9376 87.96H72.2176ZM69.3376 97.824H72.0976L71.0896 91.488L69.3376 97.824ZM86.117 87.72C87.621 87.72 88.733 88.048 89.453 88.704C90.189 89.36 90.557 90.216 90.557 91.272C90.557 92.168 90.309 92.856 89.813 93.336C89.317 93.8 88.605 94.032 87.677 94.032C87.389 94.032 87.205 94.008 87.125 93.96C87.045 93.896 87.005 93.776 87.005 93.6C87.005 93.44 86.989 93.232 86.957 92.976C86.941 92.72 86.885 92.472 86.789 92.232C86.693 91.992 86.541 91.792 86.333 91.632C86.125 91.456 85.837 91.368 85.469 91.368C84.957 91.368 84.501 91.528 84.101 91.848C83.701 92.152 83.501 92.552 83.501 93.048C83.501 93.48 83.661 93.832 83.981 94.104C84.317 94.376 84.733 94.632 85.229 94.872C85.725 95.096 86.261 95.328 86.837 95.568C87.429 95.808 87.973 96.128 88.469 96.528C88.965 96.912 89.373 97.4 89.693 97.992C90.029 98.568 90.197 99.304 90.197 100.2C90.197 100.904 90.077 101.568 89.837 102.192C89.613 102.8 89.269 103.336 88.805 103.8C88.357 104.248 87.781 104.6 87.077 104.856C86.389 105.112 85.581 105.24 84.653 105.24C83.853 105.24 83.109 105.152 82.421 104.976C81.749 104.8 81.157 104.584 80.645 104.328C80.149 104.056 79.757 103.768 79.469 103.464C79.181 103.144 79.037 102.856 79.037 102.6C79.037 101.544 79.093 100.784 79.205 100.32C79.333 99.856 79.557 99.624 79.877 99.624C80.101 99.624 80.333 99.72 80.573 99.912C80.829 100.104 81.117 100.32 81.437 100.56C81.757 100.8 82.125 101.016 82.541 101.208C82.973 101.4 83.469 101.496 84.029 101.496C84.253 101.496 84.469 101.48 84.677 101.448C84.901 101.4 85.093 101.328 85.253 101.232C85.429 101.136 85.565 101.008 85.661 100.848C85.773 100.688 85.829 100.496 85.829 100.272C85.829 99.872 85.677 99.552 85.373 99.312C85.069 99.072 84.685 98.856 84.221 98.664C83.757 98.456 83.253 98.248 82.709 98.04C82.181 97.816 81.685 97.52 81.221 97.152C80.757 96.768 80.373 96.28 80.069 95.688C79.765 95.096 79.613 94.336 79.613 93.408C79.613 92.368 79.805 91.488 80.189 90.768C80.589 90.048 81.093 89.464 81.701 89.016C82.325 88.552 83.021 88.224 83.789 88.032C84.573 87.824 85.349 87.72 86.117 87.72ZM100.061 87.96C100.461 87.96 100.789 88.04 101.045 88.2C101.317 88.344 101.541 88.544 101.717 88.8C101.893 89.04 102.037 89.32 102.149 89.64C102.261 89.96 102.357 90.288 102.437 90.624C103.077 93.216 103.605 95.352 104.021 97.032C104.437 98.712 104.765 100.072 105.005 101.112C105.245 102.136 105.413 102.896 105.509 103.392C105.605 103.888 105.653 104.232 105.653 104.424C105.653 104.648 105.597 104.8 105.485 104.88C105.389 104.96 105.229 105 105.005 105H103.781C103.093 105 102.541 104.92 102.125 104.76C101.725 104.584 101.413 104.336 101.189 104.016C100.981 103.696 100.829 103.312 100.733 102.864C100.637 102.4 100.557 101.88 100.493 101.304H96.3173L95.5253 104.616C95.4453 104.872 95.2613 105 94.9733 105H93.7013C93.4453 105 93.1813 104.976 92.9093 104.928C92.6373 104.864 92.3893 104.768 92.1653 104.64C91.9573 104.512 91.7813 104.352 91.6373 104.16C91.4933 103.952 91.4213 103.704 91.4213 103.416C91.4213 103.064 91.5333 102.488 91.7573 101.688C91.9813 100.888 92.2613 99.984 92.5973 98.976C92.9493 97.952 93.3333 96.888 93.7493 95.784C94.1813 94.664 94.5973 93.608 94.9973 92.616C95.3973 91.624 95.7573 90.752 96.0773 90C96.4133 89.248 96.6693 88.72 96.8453 88.416C96.9733 88.192 97.0853 88.064 97.1813 88.032C97.2933 87.984 97.4933 87.96 97.7813 87.96H100.061ZM97.1813 97.824H99.9413L98.9333 91.488L97.1813 97.824ZM109.185 100.728C109.857 100.728 110.337 100.896 110.625 101.232C110.913 101.552 111.057 102.008 111.057 102.6C111.057 102.856 111.025 103.136 110.961 103.44C110.897 103.744 110.777 104.032 110.601 104.304C110.441 104.56 110.201 104.784 109.881 104.976C109.577 105.152 109.177 105.24 108.681 105.24C107.961 105.24 107.473 105.056 107.217 104.688C106.961 104.304 106.833 103.832 106.833 103.272C106.833 102.952 106.873 102.64 106.953 102.336C107.033 102.032 107.161 101.76 107.337 101.52C107.513 101.28 107.753 101.088 108.057 100.944C108.361 100.8 108.737 100.728 109.185 100.728ZM109.713 99.048C109.313 99.048 108.985 99 108.729 98.904C108.473 98.808 108.273 98.664 108.129 98.472C107.985 98.264 107.881 98.016 107.817 97.728C107.769 97.424 107.745 97.08 107.745 96.696C107.745 96.552 107.745 96.4 107.745 96.24C107.761 96.064 107.777 95.848 107.793 95.592C107.825 95.336 107.849 95.016 107.865 94.632C107.897 94.248 107.937 93.76 107.985 93.168C108.033 92.56 108.089 91.832 108.153 90.984C108.217 90.136 108.289 89.12 108.369 87.936C108.385 87.584 108.425 87.376 108.489 87.312C108.537 87.264 108.665 87.24 108.873 87.24H110.289C111.169 87.24 111.793 87.416 112.161 87.768C112.545 88.104 112.737 88.504 112.737 88.968C112.737 89.256 112.705 89.64 112.641 90.12C112.593 90.584 112.521 91.104 112.425 91.68C112.329 92.256 112.217 92.864 112.089 93.504C111.977 94.128 111.857 94.752 111.729 95.376C111.617 95.984 111.505 96.568 111.393 97.128C111.281 97.688 111.185 98.168 111.105 98.568C111.073 98.76 111.017 98.888 110.937 98.952C110.873 99.016 110.753 99.048 110.577 99.048H109.713Z" fill="#12283C"/>
<defs>
<filter id="filter0_i_34_23" x="0" y="0" width="162" height="166" filterUnits="userSpaceOnUse" color-interpolation-filters="sRGB">
<feFlood flood-opacity="0" result="BackgroundImageFix"/>
<feBlend mode="normal" in="SourceGraphic" in2="BackgroundImageFix" result="shape"/>
<feColorMatrix in="SourceAlpha" type="matrix" values="0 0 0 0 0 0 0 0 0 0 0 0 0 0 0 0 0 0 127 0" result="hardAlpha"/>
<feOffset dy="4"/>
<feGaussianBlur stdDeviation="2"/>
<feComposite in2="hardAlpha" operator="arithmetic" k2="-1" k3="1"/>
<feColorMatrix type="matrix" values="0 0 0 0 0 0 0 0 0 0 0 0 0 0 0 0 0 0 0.25 0"/>
<feBlend mode="normal" in2="shape" result="effect1_innerShadow_34_23"/>
</filter>
</defs>
</svg>
