<svg width="172" height="170" viewBox="0 0 172 170" fill="none" xmlns="http://www.w3.org/2000/svg">
<g filter="url(#filter0_di_34_23)">
<g filter="url(#filter1_i_34_23)">
<circle cx="85" cy="81" r="81" fill="#F9D66A"/>
</g>
<circle cx="85" cy="81" r="80" stroke="#F9D66A" stroke-width="2"/>
<path d="M22.2875 66.952C21.6155 66.952 21.1355 66.792 20.8475 66.472C20.5595 66.136 20.4155 65.672 20.4155 65.08C20.4155 64.824 20.4475 64.544 20.5115 64.24C20.5755 63.936 20.6875 63.656 20.8475 63.4C21.0235 63.128 21.2635 62.904 21.5675 62.728C21.8875 62.536 22.2955 62.44 22.7915 62.44C23.5115 62.44 23.9995 62.632 24.2555 63.016C24.5115 63.384 24.6395 63.848 24.6395 64.408C24.6395 64.728 24.5995 65.04 24.5195 65.344C24.4395 65.648 24.3115 65.92 24.1355 66.16C23.9595 66.4 23.7195 66.592 23.4155 66.736C23.1115 66.88 22.7355 66.952 22.2875 66.952ZM21.7595 68.632C22.5435 68.632 23.0635 68.832 23.3195 69.232C23.5915 69.616 23.7275 70.2 23.7275 70.984C23.7275 71.128 23.7195 71.288 23.7035 71.464C23.7035 71.624 23.6955 71.832 23.6795 72.088C23.6635 72.344 23.6395 72.664 23.6075 73.048C23.5755 73.432 23.5355 73.928 23.4875 74.536C23.4395 75.128 23.3835 75.848 23.3195 76.696C23.2555 77.56 23.1835 78.576 23.1035 79.744C23.0875 79.92 23.0715 80.056 23.0555 80.152C23.0555 80.264 23.0395 80.336 23.0075 80.368C22.9595 80.416 22.8235 80.44 22.5995 80.44H21.1835C20.3035 80.44 19.6715 80.264 19.2875 79.912C18.9195 79.576 18.7355 79.176 18.7355 78.712C18.7355 78.424 18.7595 78.04 18.8075 77.56C18.8715 77.096 18.9515 76.576 19.0475 76C19.1435 75.424 19.2475 74.824 19.3595 74.2C19.4875 73.56 19.6075 72.936 19.7195 72.328C19.8475 71.704 19.9675 71.12 20.0795 70.576C20.1915 70.016 20.2875 69.528 20.3675 69.112C20.3995 68.92 20.4475 68.792 20.5115 68.728C20.5915 68.664 20.7195 68.632 20.8955 68.632H21.7595ZM34.1055 62.32L33.1935 75.64C33.1775 75.88 33.0895 76 32.9295 76H31.6095C30.7135 76 30.0735 75.824 29.6895 75.472C29.3055 75.12 29.1135 74.616 29.1135 73.96C29.1135 73.72 29.1215 73.36 29.1375 72.88C29.1695 72.4 29.2095 71.84 29.2575 71.2C29.3055 70.544 29.3535 69.84 29.4015 69.088C29.4655 68.32 29.5295 67.552 29.5935 66.784C29.6575 66 29.7135 65.224 29.7615 64.456C29.8255 63.688 29.8815 62.976 29.9295 62.32H26.0895C25.9135 62.32 25.8255 62.208 25.8255 61.984L25.8975 60.64C25.9135 60.432 25.9455 60.232 25.9935 60.04C26.0575 59.832 26.1535 59.648 26.2815 59.488C26.4095 59.328 26.5695 59.2 26.7615 59.104C26.9695 59.008 27.2175 58.96 27.5055 58.96H38.2335C38.3295 58.96 38.4175 58.984 38.4975 59.032C38.5775 59.08 38.6175 59.168 38.6175 59.296L38.5215 60.712C38.4895 61.192 38.3535 61.584 38.1135 61.888C37.8895 62.176 37.4175 62.32 36.6975 62.32H34.1055ZM41.8802 76C40.9842 76 40.3442 75.824 39.9602 75.472C39.5762 75.12 39.3842 74.616 39.3842 73.96C39.3842 73.64 39.4082 73.096 39.4562 72.328C39.5042 71.544 39.5682 70.656 39.6482 69.664C39.7282 68.672 39.8082 67.624 39.8882 66.52C39.9682 65.416 40.0482 64.376 40.1282 63.4C40.2082 62.424 40.2722 61.568 40.3202 60.832C40.3682 60.096 40.3922 59.592 40.3922 59.32C40.3922 59.08 40.5202 58.96 40.7762 58.96H49.2242C49.3202 58.96 49.4082 58.984 49.4882 59.032C49.5682 59.08 49.6082 59.168 49.6082 59.296L49.5122 60.712C49.4802 61.192 49.3442 61.584 49.1042 61.888C48.8802 62.176 48.4082 62.32 47.6882 62.32H44.3762L44.1362 65.704H47.5442C47.6402 65.704 47.7282 65.728 47.8082 65.776C47.8882 65.824 47.9282 65.912 47.9282 66.04L47.8322 67.456C47.8002 67.936 47.6642 68.328 47.4242 68.632C47.2002 68.92 46.7282 69.064 46.0082 69.064H43.9202L43.6562 72.64H48.9362C49.0322 72.64 49.1202 72.672 49.2002 72.736C49.2802 72.784 49.3202 72.864 49.3202 72.976L49.2242 74.392C49.1922 74.872 49.0562 75.264 48.8162 75.568C48.5922 75.856 48.1202 76 47.4002 76H41.8802ZM62.1596 76C61.5036 76 61.0156 75.904 60.6956 75.712C60.3756 75.52 60.1436 75.28 59.9996 74.992C59.1676 73.28 58.3836 71.64 57.6476 70.072C56.9276 68.504 56.1916 66.92 55.4396 65.32C55.4556 67.048 55.4796 68.768 55.5116 70.48C55.5436 72.192 55.5756 73.912 55.6076 75.64C55.6076 75.88 55.4796 76 55.2236 76H53.9036C52.9916 76 52.3436 75.824 51.9596 75.472C51.5916 75.104 51.4076 74.568 51.4076 73.864C51.4076 73.672 51.4156 73.352 51.4316 72.904C51.4636 72.44 51.5036 71.896 51.5516 71.272C51.5996 70.648 51.6476 69.968 51.6956 69.232C51.7596 68.48 51.8236 67.72 51.8876 66.952C51.9836 65.736 52.0636 64.728 52.1276 63.928C52.1916 63.128 52.2396 62.456 52.2716 61.912C52.3196 61.352 52.3516 60.88 52.3676 60.496C52.3836 60.096 52.3996 59.704 52.4156 59.32C52.4156 59.08 52.5436 58.96 52.7996 58.96H54.7196C55.2476 58.96 55.6796 59.024 56.0156 59.152C56.3516 59.264 56.6236 59.424 56.8316 59.632C57.0556 59.84 57.2316 60.08 57.3596 60.352C57.4876 60.608 57.6076 60.88 57.7196 61.168C58.1036 62.16 58.4396 63.016 58.7276 63.736C59.0316 64.456 59.2956 65.088 59.5196 65.632C59.7436 66.176 59.9356 66.648 60.0956 67.048C60.2716 67.448 60.4316 67.816 60.5756 68.152C60.7196 68.488 60.8636 68.816 61.0076 69.136C61.1516 69.44 61.3036 69.776 61.4636 70.144C61.4636 69.2 61.4556 68.232 61.4396 67.24C61.4396 66.232 61.4316 65.256 61.4156 64.312C61.4156 63.352 61.4076 62.432 61.3916 61.552C61.3916 60.672 61.3916 59.88 61.3916 59.176C61.3916 59.032 61.5276 58.96 61.7996 58.96H63.1196C63.6476 58.96 64.0636 59.016 64.3676 59.128C64.6876 59.224 64.9356 59.376 65.1116 59.584C65.2876 59.776 65.3996 60.016 65.4476 60.304C65.5116 60.592 65.5436 60.92 65.5436 61.288C65.5436 61.688 65.5196 62.304 65.4716 63.136C65.4236 63.952 65.3676 64.872 65.3036 65.896C65.2396 66.92 65.1676 67.984 65.0876 69.088C65.0076 70.176 64.9276 71.184 64.8476 72.112C64.7836 73.04 64.7196 73.832 64.6556 74.488C64.6076 75.128 64.5756 75.504 64.5596 75.616C64.5596 75.744 64.5116 75.84 64.4156 75.904C64.3356 75.968 64.2396 76 64.1276 76H62.1596ZM78.587 76C77.755 76 77.155 75.832 76.787 75.496C76.435 75.144 76.243 74.712 76.211 74.2C76.035 74.744 75.659 75.224 75.083 75.64C74.523 76.04 73.707 76.24 72.635 76.24C72.011 76.24 71.403 76.12 70.811 75.88C70.219 75.624 69.691 75.208 69.227 74.632C68.763 74.056 68.387 73.288 68.099 72.328C67.827 71.368 67.691 70.176 67.691 68.752C67.691 68.208 67.723 67.584 67.787 66.88C67.851 66.16 67.979 65.432 68.171 64.696C68.379 63.944 68.667 63.216 69.035 62.512C69.419 61.792 69.915 61.152 70.523 60.592C71.147 60.032 71.907 59.584 72.803 59.248C73.699 58.896 74.771 58.72 76.019 58.72C76.835 58.72 77.563 58.808 78.203 58.984C78.859 59.16 79.411 59.408 79.859 59.728C80.323 60.048 80.675 60.44 80.915 60.904C81.171 61.368 81.299 61.888 81.299 62.464C81.299 63.392 80.995 64.096 80.387 64.576C79.779 65.04 78.923 65.272 77.819 65.272C77.467 65.272 77.251 65.248 77.171 65.2C77.107 65.136 77.067 65.016 77.051 64.84C77.019 64.552 76.995 64.264 76.979 63.976C76.979 63.688 76.939 63.424 76.859 63.184C76.795 62.944 76.675 62.752 76.499 62.608C76.323 62.464 76.043 62.392 75.659 62.392C74.875 62.392 74.251 62.616 73.787 63.064C73.323 63.512 72.971 64.056 72.731 64.696C72.491 65.336 72.339 66 72.275 66.688C72.211 67.36 72.179 67.928 72.179 68.392C72.179 69.16 72.227 69.808 72.323 70.336C72.419 70.848 72.555 71.272 72.731 71.608C72.923 71.928 73.147 72.16 73.403 72.304C73.659 72.432 73.955 72.496 74.291 72.496C74.899 72.496 75.411 72.368 75.827 72.112C76.243 71.856 76.491 71.392 76.571 70.72L76.715 69.376C76.763 68.912 76.827 68.536 76.907 68.248C76.987 67.944 77.179 67.792 77.483 67.792H78.803C79.203 67.792 79.523 67.84 79.763 67.936C80.019 68.016 80.211 68.16 80.339 68.368C80.483 68.56 80.579 68.816 80.627 69.136C80.675 69.456 80.699 69.848 80.699 70.312C80.699 70.632 80.683 71.056 80.651 71.584C80.635 72.112 80.603 72.648 80.555 73.192C80.523 73.736 80.483 74.24 80.435 74.704C80.387 75.152 80.347 75.464 80.315 75.64C80.283 75.784 80.243 75.88 80.195 75.928C80.147 75.976 80.051 76 79.907 76H78.587ZM91.7786 58.696C92.9466 58.696 93.9466 58.864 94.7786 59.2C95.6106 59.52 96.2906 60 96.8186 60.64C97.3466 61.264 97.7306 62.032 97.9706 62.944C98.2106 63.84 98.3306 64.864 98.3306 66.016C98.3306 66.656 98.2826 67.352 98.1866 68.104C98.1066 68.856 97.9466 69.616 97.7066 70.384C97.4826 71.136 97.1706 71.864 96.7706 72.568C96.3706 73.272 95.8506 73.896 95.2106 74.44C94.5866 74.984 93.8346 75.424 92.9546 75.76C92.0746 76.08 91.0346 76.24 89.8346 76.24C88.5066 76.24 87.4026 76.04 86.5226 75.64C85.6586 75.24 84.9626 74.704 84.4346 74.032C83.9226 73.344 83.5546 72.536 83.3306 71.608C83.1226 70.68 83.0186 69.688 83.0186 68.632C83.0186 67.384 83.1626 66.168 83.4506 64.984C83.7386 63.784 84.2186 62.72 84.8906 61.792C85.5786 60.864 86.4826 60.12 87.6026 59.56C88.7226 58.984 90.1146 58.696 91.7786 58.696ZM91.2746 62.416C90.7146 62.416 90.2266 62.52 89.8106 62.728C89.4106 62.92 89.0666 63.184 88.7786 63.52C88.5066 63.856 88.2826 64.232 88.1066 64.648C87.9466 65.064 87.8186 65.496 87.7226 65.944C87.6266 66.376 87.5626 66.8 87.5306 67.216C87.4986 67.616 87.4826 67.976 87.4826 68.296C87.4826 69.752 87.7226 70.816 88.2026 71.488C88.6986 72.16 89.3946 72.496 90.2906 72.496C91.0266 72.496 91.6266 72.264 92.0906 71.8C92.5546 71.32 92.9146 70.752 93.1706 70.096C93.4426 69.424 93.6266 68.736 93.7226 68.032C93.8186 67.312 93.8666 66.704 93.8666 66.208C93.8666 65.04 93.6666 64.12 93.2666 63.448C92.8666 62.76 92.2026 62.416 91.2746 62.416ZM118.749 68.176C118.701 68.656 118.629 69.192 118.533 69.784C118.437 70.36 118.285 70.952 118.077 71.56C117.885 72.152 117.621 72.728 117.285 73.288C116.949 73.848 116.517 74.352 115.989 74.8C115.461 75.232 114.821 75.584 114.069 75.856C113.333 76.112 112.453 76.24 111.429 76.24C110.389 76.24 109.501 76.096 108.765 75.808C108.029 75.504 107.429 75.096 106.965 74.584C106.501 74.056 106.165 73.448 105.957 72.76C105.749 72.072 105.645 71.336 105.645 70.552C105.645 70.2 105.661 69.728 105.693 69.136C105.725 68.528 105.765 67.872 105.813 67.168C105.877 66.464 105.941 65.736 106.005 64.984C106.069 64.216 106.125 63.488 106.173 62.8C106.237 62.112 106.293 61.496 106.341 60.952C106.389 60.392 106.421 59.968 106.437 59.68C106.453 59.376 106.493 59.184 106.557 59.104C106.621 59.008 106.717 58.96 106.845 58.96H108.165C109.141 58.96 109.797 59.168 110.133 59.584C110.469 60 110.637 60.616 110.637 61.432C110.637 61.48 110.621 61.696 110.589 62.08C110.573 62.448 110.541 62.904 110.493 63.448C110.461 63.992 110.421 64.584 110.373 65.224C110.341 65.864 110.301 66.472 110.253 67.048C110.221 67.624 110.189 68.128 110.157 68.56C110.141 68.992 110.133 69.28 110.133 69.424C110.133 69.696 110.141 70.008 110.157 70.36C110.189 70.712 110.253 71.048 110.349 71.368C110.461 71.688 110.629 71.96 110.853 72.184C111.093 72.392 111.429 72.496 111.861 72.496C112.405 72.496 112.845 72.312 113.181 71.944C113.533 71.576 113.797 71.136 113.973 70.624C114.165 70.112 114.293 69.592 114.357 69.064C114.437 68.536 114.493 68.104 114.525 67.768C114.589 66.952 114.653 66.112 114.717 65.248C114.797 64.384 114.861 63.576 114.909 62.824C114.973 62.072 115.021 61.416 115.053 60.856C115.085 60.296 115.101 59.912 115.101 59.704C115.101 59.384 115.125 59.184 115.173 59.104C115.221 59.008 115.325 58.96 115.485 58.96H116.805C117.349 58.96 117.773 59.008 118.077 59.104C118.397 59.2 118.637 59.328 118.797 59.488C118.957 59.648 119.053 59.832 119.085 60.04C119.133 60.248 119.157 60.464 119.157 60.688C119.157 60.896 119.141 61.288 119.109 61.864C119.093 62.44 119.069 63.096 119.037 63.832C119.005 64.568 118.965 65.328 118.917 66.112C118.869 66.896 118.813 67.584 118.749 68.176ZM132.074 76C131.418 76 130.93 75.904 130.61 75.712C130.29 75.52 130.058 75.28 129.914 74.992C129.082 73.28 128.298 71.64 127.562 70.072C126.842 68.504 126.106 66.92 125.354 65.32C125.37 67.048 125.394 68.768 125.426 70.48C125.458 72.192 125.49 73.912 125.522 75.64C125.522 75.88 125.394 76 125.138 76H123.818C122.906 76 122.258 75.824 121.874 75.472C121.506 75.104 121.322 74.568 121.322 73.864C121.322 73.672 121.33 73.352 121.346 72.904C121.378 72.44 121.418 71.896 121.466 71.272C121.514 70.648 121.562 69.968 121.61 69.232C121.674 68.48 121.738 67.72 121.802 66.952C121.898 65.736 121.978 64.728 122.042 63.928C122.106 63.128 122.154 62.456 122.186 61.912C122.234 61.352 122.266 60.88 122.282 60.496C122.298 60.096 122.314 59.704 122.33 59.32C122.33 59.08 122.458 58.96 122.714 58.96H124.634C125.162 58.96 125.594 59.024 125.93 59.152C126.266 59.264 126.538 59.424 126.746 59.632C126.97 59.84 127.146 60.08 127.274 60.352C127.402 60.608 127.522 60.88 127.634 61.168C128.018 62.16 128.354 63.016 128.642 63.736C128.946 64.456 129.21 65.088 129.434 65.632C129.658 66.176 129.85 66.648 130.01 67.048C130.186 67.448 130.346 67.816 130.49 68.152C130.634 68.488 130.778 68.816 130.922 69.136C131.066 69.44 131.218 69.776 131.378 70.144C131.378 69.2 131.37 68.232 131.354 67.24C131.354 66.232 131.346 65.256 131.33 64.312C131.33 63.352 131.322 62.432 131.306 61.552C131.306 60.672 131.306 59.88 131.306 59.176C131.306 59.032 131.442 58.96 131.714 58.96H133.034C133.562 58.96 133.978 59.016 134.282 59.128C134.602 59.224 134.85 59.376 135.026 59.584C135.202 59.776 135.314 60.016 135.362 60.304C135.426 60.592 135.458 60.92 135.458 61.288C135.458 61.688 135.434 62.304 135.386 63.136C135.338 63.952 135.282 64.872 135.218 65.896C135.154 66.92 135.082 67.984 135.002 69.088C134.922 70.176 134.842 71.184 134.762 72.112C134.698 73.04 134.634 73.832 134.57 74.488C134.522 75.128 134.49 75.504 134.474 75.616C134.474 75.744 134.426 75.84 134.33 75.904C134.25 75.968 134.154 76 134.042 76H132.074ZM145.405 58.96C145.805 58.96 146.133 59.04 146.389 59.2C146.661 59.344 146.885 59.544 147.061 59.8C147.237 60.04 147.381 60.32 147.493 60.64C147.605 60.96 147.701 61.288 147.781 61.624C148.421 64.216 148.949 66.352 149.365 68.032C149.781 69.712 150.109 71.072 150.349 72.112C150.589 73.136 150.757 73.896 150.853 74.392C150.949 74.888 150.997 75.232 150.997 75.424C150.997 75.648 150.941 75.8 150.829 75.88C150.733 75.96 150.573 76 150.349 76H149.125C148.437 76 147.885 75.92 147.469 75.76C147.069 75.584 146.757 75.336 146.533 75.016C146.325 74.696 146.173 74.312 146.077 73.864C145.981 73.4 145.901 72.88 145.837 72.304H141.661L140.869 75.616C140.789 75.872 140.605 76 140.317 76H139.045C138.789 76 138.525 75.976 138.253 75.928C137.981 75.864 137.733 75.768 137.509 75.64C137.301 75.512 137.125 75.352 136.981 75.16C136.837 74.952 136.765 74.704 136.765 74.416C136.765 74.064 136.877 73.488 137.101 72.688C137.325 71.888 137.605 70.984 137.941 69.976C138.293 68.952 138.677 67.888 139.093 66.784C139.525 65.664 139.941 64.608 140.341 63.616C140.741 62.624 141.101 61.752 141.421 61C141.757 60.248 142.013 59.72 142.189 59.416C142.317 59.192 142.429 59.064 142.525 59.032C142.637 58.984 142.837 58.96 143.125 58.96H145.405ZM142.525 68.824H145.285L144.277 62.488L142.525 68.824ZM61.2092 101.496C61.8652 101.496 62.4172 101.4 62.8652 101.208C63.3292 101.016 63.7212 100.8 64.0412 100.56C64.3612 100.32 64.6412 100.104 64.8812 99.912C65.1372 99.72 65.3932 99.624 65.6492 99.624C65.9692 99.624 66.1292 99.864 66.1292 100.344C66.1292 100.6 66.0972 100.912 66.0332 101.28C65.9692 101.632 65.8812 102.032 65.7692 102.48C65.7052 102.752 65.5452 103.048 65.2892 103.368C65.0492 103.688 64.7132 103.992 64.2812 104.28C63.8492 104.552 63.3132 104.784 62.6732 104.976C62.0492 105.152 61.3292 105.24 60.5132 105.24C59.6972 105.24 58.8812 105.12 58.0652 104.88C57.2492 104.64 56.5212 104.232 55.8812 103.656C55.2412 103.08 54.7212 102.304 54.3212 101.328C53.9212 100.352 53.7212 99.128 53.7212 97.656C53.7212 97.128 53.7532 96.52 53.8172 95.832C53.8972 95.128 54.0412 94.408 54.2492 93.672C54.4572 92.936 54.7452 92.216 55.1132 91.512C55.4972 90.792 55.9852 90.152 56.5772 89.592C57.1692 89.032 57.8892 88.584 58.7372 88.248C59.6012 87.896 60.6252 87.72 61.8092 87.72C62.7532 87.72 63.5692 87.832 64.2572 88.056C64.9612 88.28 65.5372 88.592 65.9852 88.992C66.4492 89.376 66.7852 89.832 66.9932 90.36C67.2172 90.888 67.3292 91.448 67.3292 92.04C67.3292 93.064 67.0252 93.816 66.4172 94.296C65.8252 94.76 64.9772 94.992 63.8732 94.992C63.5212 94.992 63.2972 94.968 63.2012 94.92C63.1212 94.856 63.0812 94.736 63.0812 94.56C63.0652 94.016 63.0492 93.544 63.0332 93.144C63.0172 92.744 62.9612 92.416 62.8652 92.16C62.7692 91.888 62.6172 91.696 62.4092 91.584C62.2172 91.456 61.9452 91.392 61.5932 91.392C61.0812 91.392 60.6412 91.504 60.2732 91.728C59.9212 91.936 59.6172 92.216 59.3612 92.568C59.1212 92.904 58.9212 93.288 58.7612 93.72C58.6172 94.152 58.4972 94.592 58.4012 95.04C58.3212 95.488 58.2652 95.92 58.2332 96.336C58.2172 96.752 58.2092 97.112 58.2092 97.416C58.2092 98.888 58.4492 99.936 58.9292 100.56C59.4252 101.184 60.1852 101.496 61.2092 101.496ZM76.2176 87.96C76.6176 87.96 76.9456 88.04 77.2016 88.2C77.4736 88.344 77.6976 88.544 77.8736 88.8C78.0496 89.04 78.1936 89.32 78.3056 89.64C78.4176 89.96 78.5136 90.288 78.5936 90.624C79.2336 93.216 79.7616 95.352 80.1776 97.032C80.5936 98.712 80.9216 100.072 81.1616 101.112C81.4016 102.136 81.5696 102.896 81.6656 103.392C81.7616 103.888 81.8096 104.232 81.8096 104.424C81.8096 104.648 81.7536 104.8 81.6416 104.88C81.5456 104.96 81.3856 105 81.1616 105H79.9376C79.2496 105 78.6976 104.92 78.2816 104.76C77.8816 104.584 77.5696 104.336 77.3456 104.016C77.1376 103.696 76.9856 103.312 76.8896 102.864C76.7936 102.4 76.7136 101.88 76.6496 101.304H72.4736L71.6816 104.616C71.6016 104.872 71.4176 105 71.1296 105H69.8576C69.6016 105 69.3376 104.976 69.0656 104.928C68.7936 104.864 68.5456 104.768 68.3216 104.64C68.1136 104.512 67.9376 104.352 67.7936 104.16C67.6496 103.952 67.5776 103.704 67.5776 103.416C67.5776 103.064 67.6896 102.488 67.9136 101.688C68.1376 100.888 68.4176 99.984 68.7536 98.976C69.1056 97.952 69.4896 96.888 69.9056 95.784C70.3376 94.664 70.7536 93.608 71.1536 92.616C71.5536 91.624 71.9136 90.752 72.2336 90C72.5696 89.248 72.8256 88.72 73.0016 88.416C73.1296 88.192 73.2416 88.064 73.3376 88.032C73.4496 87.984 73.6496 87.96 73.9376 87.96H76.2176ZM73.3376 97.824H76.0976L75.0896 91.488L73.3376 97.824ZM90.117 87.72C91.621 87.72 92.733 88.048 93.453 88.704C94.189 89.36 94.557 90.216 94.557 91.272C94.557 92.168 94.309 92.856 93.813 93.336C93.317 93.8 92.605 94.032 91.677 94.032C91.389 94.032 91.205 94.008 91.125 93.96C91.045 93.896 91.005 93.776 91.005 93.6C91.005 93.44 90.989 93.232 90.957 92.976C90.941 92.72 90.885 92.472 90.789 92.232C90.693 91.992 90.541 91.792 90.333 91.632C90.125 91.456 89.837 91.368 89.469 91.368C88.957 91.368 88.501 91.528 88.101 91.848C87.701 92.152 87.501 92.552 87.501 93.048C87.501 93.48 87.661 93.832 87.981 94.104C88.317 94.376 88.733 94.632 89.229 94.872C89.725 95.096 90.261 95.328 90.837 95.568C91.429 95.808 91.973 96.128 92.469 96.528C92.965 96.912 93.373 97.4 93.693 97.992C94.029 98.568 94.197 99.304 94.197 100.2C94.197 100.904 94.077 101.568 93.837 102.192C93.613 102.8 93.269 103.336 92.805 103.8C92.357 104.248 91.781 104.6 91.077 104.856C90.389 105.112 89.581 105.24 88.653 105.24C87.853 105.24 87.109 105.152 86.421 104.976C85.749 104.8 85.157 104.584 84.645 104.328C84.149 104.056 83.757 103.768 83.469 103.464C83.181 103.144 83.037 102.856 83.037 102.6C83.037 101.544 83.093 100.784 83.205 100.32C83.333 99.856 83.557 99.624 83.877 99.624C84.101 99.624 84.333 99.72 84.573 99.912C84.829 100.104 85.117 100.32 85.437 100.56C85.757 100.8 86.125 101.016 86.541 101.208C86.973 101.4 87.469 101.496 88.029 101.496C88.253 101.496 88.469 101.48 88.677 101.448C88.901 101.4 89.093 101.328 89.253 101.232C89.429 101.136 89.565 101.008 89.661 100.848C89.773 100.688 89.829 100.496 89.829 100.272C89.829 99.872 89.677 99.552 89.373 99.312C89.069 99.072 88.685 98.856 88.221 98.664C87.757 98.456 87.253 98.248 86.709 98.04C86.181 97.816 85.685 97.52 85.221 97.152C84.757 96.768 84.373 96.28 84.069 95.688C83.765 95.096 83.613 94.336 83.613 93.408C83.613 92.368 83.805 91.488 84.189 90.768C84.589 90.048 85.093 89.464 85.701 89.016C86.325 88.552 87.021 88.224 87.789 88.032C88.573 87.824 89.349 87.72 90.117 87.72ZM104.061 87.96C104.461 87.96 104.789 88.04 105.045 88.2C105.317 88.344 105.541 88.544 105.717 88.8C105.893 89.04 106.037 89.32 106.149 89.64C106.261 89.96 106.357 90.288 106.437 90.624C107.077 93.216 107.605 95.352 108.021 97.032C108.437 98.712 108.765 100.072 109.005 101.112C109.245 102.136 109.413 102.896 109.509 103.392C109.605 103.888 109.653 104.232 109.653 104.424C109.653 104.648 109.597 104.8 109.485 104.88C109.389 104.96 109.229 105 109.005 105H107.781C107.093 105 106.541 104.92 106.125 104.76C105.725 104.584 105.413 104.336 105.189 104.016C104.981 103.696 104.829 103.312 104.733 102.864C104.637 102.4 104.557 101.88 104.493 101.304H100.317L99.5253 104.616C99.4453 104.872 99.2613 105 98.9733 105H97.7013C97.4453 105 97.1813 104.976 96.9093 104.928C96.6373 104.864 96.3893 104.768 96.1653 104.64C95.9573 104.512 95.7813 104.352 95.6373 104.16C95.4933 103.952 95.4213 103.704 95.4213 103.416C95.4213 103.064 95.5333 102.488 95.7573 101.688C95.9813 100.888 96.2613 99.984 96.5973 98.976C96.9493 97.952 97.3333 96.888 97.7493 95.784C98.1813 94.664 98.5973 93.608 98.9973 92.616C99.3973 91.624 99.7573 90.752 100.077 90C100.413 89.248 100.669 88.72 100.845 88.416C100.973 88.192 101.085 88.064 101.181 88.032C101.293 87.984 101.493 87.96 101.781 87.96H104.061ZM101.181 97.824H103.941L102.933 91.488L101.181 97.824ZM113.185 100.728C113.857 100.728 114.337 100.896 114.625 101.232C114.913 101.552 115.057 102.008 115.057 102.6C115.057 102.856 115.025 103.136 114.961 103.44C114.897 103.744 114.777 104.032 114.601 104.304C114.441 104.56 114.201 104.784 113.881 104.976C113.577 105.152 113.177 105.24 112.681 105.24C111.961 105.24 111.473 105.056 111.217 104.688C110.961 104.304 110.833 103.832 110.833 103.272C110.833 102.952 110.873 102.64 110.953 102.336C111.033 102.032 111.161 101.76 111.337 101.52C111.513 101.28 111.753 101.088 112.057 100.944C112.361 100.8 112.737 100.728 113.185 100.728ZM113.713 99.048C113.313 99.048 112.985 99 112.729 98.904C112.473 98.808 112.273 98.664 112.129 98.472C111.985 98.264 111.881 98.016 111.817 97.728C111.769 97.424 111.745 97.08 111.745 96.696C111.745 96.552 111.745 96.4 111.745 96.24C111.761 96.064 111.777 95.848 111.793 95.592C111.825 95.336 111.849 95.016 111.865 94.632C111.897 94.248 111.937 93.76 111.985 93.168C112.033 92.56 112.089 91.832 112.153 90.984C112.217 90.136 112.289 89.12 112.369 87.936C112.385 87.584 112.425 87.376 112.489 87.312C112.537 87.264 112.665 87.24 112.873 87.24H114.289C115.169 87.24 115.793 87.416 116.161 87.768C116.545 88.104 116.737 88.504 116.737 88.968C116.737 89.256 116.705 89.64 116.641 90.12C116.593 90.584 116.521 91.104 116.425 91.68C116.329 92.256 116.217 92.864 116.089 93.504C115.977 94.128 115.857 94.752 115.729 95.376C115.617 95.984 115.505 96.568 115.393 97.128C115.281 97.688 115.185 98.168 115.105 98.568C115.073 98.76 115.017 98.888 114.937 98.952C114.873 99.016 114.753 99.048 114.577 99.048H113.713Z" fill="#12283C"/>
</g>
<defs>
<filter id="filter0_di_34_23" x="0" y="0" width="172" height="170" filterUnits="userSpaceOnUse" color-interpolation-filters="sRGB">
<feFlood flood-opacity="0" result="BackgroundImageFix"/>
<feColorMatrix in="SourceAlpha" type="matrix" values="0 0 0 0 0 0 0 0 0 0 0 0 0 0 0 0 0 0 127 0" result="hardAlpha"/>
<feOffset dy="4"/>
<feGaussianBlur stdDeviation="2"/>
<feComposite in2="hardAlpha" operator="out"/>
<feColorMatrix type="matrix" values="0 0 0 0 0 0 0 0 0 0 0 0 0 0 0 0 0 0 0.25 0"/>
<feBlend mode="normal" in2="BackgroundImageFix" result="effect1_dropShadow_34_23"/>
<feBlend mode="normal" in="SourceGraphic" in2="effect1_dropShadow_34_23" result="shape"/>
<feColorMatrix in="SourceAlpha" type="matrix" values="0 0 0 0 0 0 0 0 0 0 0 0 0 0 0 0 0 0 127 0" result="hardAlpha"/>
<feOffset dy="4"/>
<feGaussianBlur stdDeviation="2"/>
<feComposite in2="hardAlpha" operator="arithmetic" k2="-1" k3="1"/>
<feColorMatrix type="matrix" values="0 0 0 0 0.1675 0 0 0 0 0.0671256 0 0 0 0 0.0607187 0 0 0 0.25 0"/>
<feBlend mode="normal" in2="shape" result="effect2_innerShadow_34_23"/>
</filter>
<filter id="filter1_i_34_23" x="4" y="0" width="162" height="166" filterUnits="userSpaceOnUse" color-interpolation-filters="sRGB">
<feFlood flood-opacity="0" result="BackgroundImageFix"/>
<feBlend mode="normal" in="SourceGraphic" in2="BackgroundImageFix" result="shape"/>
<feColorMatrix in="SourceAlpha" type="matrix" values="0 0 0 0 0 0 0 0 0 0 0 0 0 0 0 0 0 0 127 0" result="hardAlpha"/>
<feOffset dy="4"/>
<feGaussianBlur stdDeviation="2"/>
<feComposite in2="hardAlpha" operator="arithmetic" k2="-1" k3="1"/>
<feColorMatrix type="matrix" values="0 0 0 0 0 0 0 0 0 0 0 0 0 0 0 0 0 0 0.25 0"/>
<feBlend mode="normal" in2="shape" result="effect1_innerShadow_34_23"/>
</filter>
</defs>
</svg>
