<svg width="55" height="52" viewBox="0 0 55 52" fill="none" xmlns="http://www.w3.org/2000/svg">
<path d="M27.5 48C40.4787 48 51 38.1503 51 26C51 13.8497 40.4787 4 27.5 4C14.5213 4 4 13.8497 4 26C4 38.1503 14.5213 48 27.5 48Z" stroke="white" stroke-width="7.02667" stroke-linecap="round"/>
<path d="M30.1111 38.2223C30.1111 38.8706 29.836 39.4923 29.3463 39.9508C28.8567 40.4092 28.1925 40.6667 27.5 40.6667C26.8075 40.6667 26.1433 40.4092 25.6537 39.9508C25.164 39.4923 24.8889 38.8706 24.8889 38.2223C24.8889 37.574 25.164 36.9522 25.6537 36.4938C26.1433 36.0354 26.8075 35.7778 27.5 35.7778C28.1925 35.7778 28.8567 36.0354 29.3463 36.4938C29.836 36.9522 30.1111 37.574 30.1111 38.2223Z" fill="white"/>
<path d="M27.5 30.8889V28.4445C27.5 26 35.3333 24.7778 34.0278 18.6667C32.7222 12.5556 22.2778 12.5556 20.9722 18.6667" stroke="white" stroke-width="7.02667" stroke-linecap="round"/>
</svg>
