<svg width="57" height="40" viewBox="0 0 57 40" fill="none" xmlns="http://www.w3.org/2000/svg">
<path d="M16.7222 2H40.2778C44.5237 2 47.4151 2.00513 49.5793 2.25666C51.6581 2.50306 52.6209 2.93169 53.2746 3.50405C53.9312 4.07384 54.4229 4.9157 54.7026 6.72517C54.9941 8.61165 55 11.1321 55 14.8332V25.0997C55 28.8034 54.9941 31.3212 54.7056 33.2077C54.4229 35.0198 53.9312 35.859 53.2746 36.4288C52.6209 37.0012 51.6551 37.4298 49.5793 37.6737C47.4151 37.9277 44.5266 37.9329 40.2778 37.9329H16.7222C12.4763 37.9329 9.58489 37.9277 7.42072 37.6762C5.34194 37.4298 4.37911 37.0012 3.72544 36.4288C3.06883 35.859 2.57711 35.0172 2.29739 33.2077C2.00589 31.3212 2 28.8034 2 25.0997V14.8332C2 11.1321 2.00589 8.61165 2.29444 6.72517C2.57711 4.91313 3.06883 4.07384 3.72544 3.50405C4.37911 2.93169 5.34489 2.50306 7.42072 2.25923C9.58489 2.00513 12.4763 2 16.7222 2Z" stroke="white" stroke-width="3.90805"/>
<path d="M4.94444 4.56677L21.4333 15.3466C24.8371 17.5719 26.5361 18.6833 28.5 18.6833C30.4639 18.6833 32.1629 17.5719 35.5667 15.3466L52.0556 4.56677" stroke="white" stroke-width="3.90805"/>
</svg>
