<svg width="61" height="48" viewBox="0 0 61 48" fill="none" xmlns="http://www.w3.org/2000/svg">
<path d="M51.1111 20.4598V36.5249H57V20.4598H51.1111ZM42.2778 43.41H18.7222V48H42.2778V43.41ZM9.8889 36.5249V20.4598H4.00001V36.5249H9.8889ZM18.7222 43.41C15.8632 43.41 14.0141 43.4054 12.6537 43.2631C11.3758 43.1277 10.9754 42.912 10.7516 42.7375L6.58818 45.9827C8.08984 47.1531 9.93895 47.6098 11.8676 47.8118C13.7167 48.0046 16.0281 48 18.7222 48V43.41ZM4.00001 36.5249C4.00001 38.6249 3.99412 40.4287 4.24146 41.8677C4.50057 43.371 5.08651 44.8145 6.58818 45.9827L10.7516 42.7375C10.5278 42.5631 10.2511 42.251 10.0773 41.255C9.89479 40.197 9.8889 38.7534 9.8889 36.5249H4.00001ZM51.1111 36.5249C51.1111 38.7534 51.1052 40.1947 50.9227 41.255C50.7489 42.251 50.4722 42.5631 50.2484 42.7375L54.4118 45.9827C55.9135 44.8122 56.4994 43.371 56.7585 41.8677C57.0059 40.4264 57 38.6249 57 36.5249H51.1111ZM42.2778 48C44.9719 48 47.2863 48.0046 49.1324 47.8118C51.061 47.6098 52.9131 47.1531 54.4118 45.9827L50.2484 42.7375C50.0246 42.912 49.6242 43.1277 48.3463 43.2631C46.9859 43.4054 45.1368 43.41 42.2778 43.41V48Z" fill="white"/>
<path d="M4 22.7548L22.1731 8.59003C26.098 5.53077 28.062 4 30.5 4C32.938 4 34.9019 5.53077 38.8269 8.59003L57 22.7548" stroke="white" stroke-width="7.02666" stroke-linecap="round"/>
<path d="M22.5557 32.7089L22.5558 32.7088C22.8156 32.2196 23.2014 31.7661 23.6987 31.3785C24.196 30.9909 24.7926 30.6788 25.4566 30.4646L25.4566 30.4646C26.4432 30.1461 27.7157 30.1399 30.5 30.1399C33.2843 30.1399 34.5568 30.1461 35.5433 30.4646L35.5434 30.4646C36.2073 30.6788 36.804 30.9909 37.3013 31.3785C37.7985 31.7661 38.1844 32.2196 38.4442 32.7088L38.4442 32.7089C38.6242 33.0476 38.7263 33.4514 38.7793 34.0569C38.8329 34.6701 38.8333 35.4467 38.8333 36.525V45.205H22.1667V36.525C22.1667 35.4467 22.1671 34.6701 22.2207 34.0569C22.2736 33.4514 22.3758 33.0476 22.5557 32.7089ZM44.2479 5.04736L44.2495 5.04684C44.6965 4.90107 45.282 4.89478 46.6944 4.89478C48.106 4.89478 48.6929 4.90092 49.1408 5.04504C49.7621 5.24662 50.2169 5.61977 50.4427 6.04524L50.4438 6.04731C50.5128 6.17575 50.5595 6.34038 50.5847 6.62544C50.6106 6.91846 50.6111 7.29371 50.6111 7.8373V19.3294L42.7778 12.2062V7.8373C42.7778 7.29382 42.7782 6.91824 42.8038 6.62487C42.8288 6.33949 42.8749 6.17417 42.9432 6.04526C43.1704 5.62016 43.6262 5.24787 44.2479 5.04736Z" fill="white" stroke="white"/>
</svg>
