<svg width="38" height="52" viewBox="0 0 38 52" fill="none" xmlns="http://www.w3.org/2000/svg">
<path d="M4.75001 39V13H9.81719e-06V39H4.75001ZM26.125 46.8H11.875V52H26.125V46.8ZM33.25 13V39H38V13H33.25ZM11.875 5.20001H26.125V1.07435e-05H11.875V5.20001ZM38 13C38 10.621 38.0047 8.57741 37.8052 6.94721C37.5962 5.24421 37.1236 3.60881 35.9124 2.28541L32.5541 5.96181C32.7346 6.15941 32.9579 6.51301 33.098 7.64141C33.2452 8.84001 33.25 10.4754 33.25 13H38ZM26.125 5.20001C28.4311 5.20001 29.9226 5.20521 31.0199 5.36641C32.0506 5.51981 32.3736 5.76421 32.5541 5.96181L35.9124 2.28541C34.7011 0.95941 33.2096 0.442011 31.654 0.213211C30.1625 -0.0051892 28.2981 1.07435e-05 26.125 1.07435e-05V5.20001ZM26.125 52C28.2981 52 30.1649 52.0052 31.654 51.7868C33.2096 51.558 34.7035 51.0406 35.9124 49.7146L32.5541 46.0382C32.3736 46.2358 32.0506 46.4802 31.0199 46.6336C29.9226 46.7948 28.4311 46.8 26.125 46.8V52ZM33.25 39C33.25 41.5246 33.2452 43.1574 33.098 44.3586C32.9579 45.487 32.7346 45.8406 32.5541 46.0382L35.9124 49.7146C37.1236 48.3886 37.5962 46.7558 37.8052 45.0528C38.0047 43.42 38 41.379 38 39H33.25ZM9.81719e-06 39C9.81719e-06 41.379 -0.0047407 43.4226 0.194759 45.0528C0.403759 46.7558 0.876385 48.3912 2.08763 49.7146L5.44588 46.0382C5.26538 45.8406 5.04213 45.487 4.90201 44.3586C4.75476 43.16 4.75001 41.5246 4.75001 39H9.81719e-06ZM11.875 46.8C9.56888 46.8 8.07738 46.7948 6.98013 46.6336C5.94938 46.4802 5.62638 46.2358 5.44588 46.0382L2.08763 49.7146C3.29888 51.0406 4.79038 51.558 6.34601 51.7868C7.83751 52.0052 9.70188 52 11.875 52V46.8ZM4.75001 13C4.75001 10.4754 4.75476 8.84261 4.90201 7.64141C5.04213 6.51301 5.26538 6.15941 5.44588 5.96181L2.08763 2.28541C0.876385 3.61141 0.403759 5.24421 0.194759 6.94721C-0.0047407 8.58001 9.81719e-06 10.621 9.81719e-06 13H4.75001ZM11.875 1.07435e-05C9.70188 1.07435e-05 7.83513 -0.0051892 6.34601 0.213211C4.79038 0.442011 3.29651 0.95941 2.08763 2.28541L5.44588 5.96181C5.62638 5.76421 5.94938 5.51981 6.98013 5.36641C8.07501 5.20521 9.56888 5.20001 11.875 5.20001V1.07435e-05Z" fill="white"/>
<path d="M13.0625 35.1H19H13.0625ZM13.0625 24.7H24.9375H13.0625ZM13.0625 14.3H24.9375H13.0625Z" fill="white"/>
<path d="M13.0625 35.1H19M13.0625 24.7H24.9375M13.0625 14.3H24.9375" stroke="white" stroke-width="7.905" stroke-linecap="round" stroke-linejoin="round"/>
</svg>
